<svg width="430" height="130" viewBox="0 0 430 130" fill="none" xmlns="http://www.w3.org/2000/svg">
<rect width="430" height="130" fill="white"/>
<g filter="url(#filter0_d_1_15)">
<mask id="path-1-inside-1_1_15" fill="white">
<path fill-rule="evenodd" clip-rule="evenodd" d="M20 10C17.2386 10 15 12.2386 15 15C15 17.7614 17.2386 20 20 20H50V100C50 102.761 52.2386 105 55 105C57.7614 105 60 102.761 60 100V20H90C92.7614 20 95 17.7614 95 15C95 12.2386 92.7614 10 90 10H20Z"/>
</mask>
<path fill-rule="evenodd" clip-rule="evenodd" d="M20 10C17.2386 10 15 12.2386 15 15C15 17.7614 17.2386 20 20 20H50V100C50 102.761 52.2386 105 55 105C57.7614 105 60 102.761 60 100V20H90C92.7614 20 95 17.7614 95 15C95 12.2386 92.7614 10 90 10H20Z" fill="#F54749"/>
<path d="M50 20H50.5V19.5H50V20ZM60 20V19.5H59.5V20H60ZM15.5 15C15.5 12.5147 17.5147 10.5 20 10.5V9.5C16.9624 9.5 14.5 11.9624 14.5 15H15.5ZM20 19.5C17.5147 19.5 15.5 17.4853 15.5 15H14.5C14.5 18.0376 16.9624 20.5 20 20.5V19.5ZM50 19.5H20V20.5H50V19.5ZM50.5 100V20H49.5V100H50.5ZM55 104.5C52.5147 104.5 50.5 102.485 50.5 100H49.5C49.5 103.038 51.9624 105.5 55 105.5V104.5ZM59.5 100C59.5 102.485 57.4853 104.5 55 104.5V105.5C58.0376 105.5 60.5 103.038 60.5 100H59.5ZM59.5 20V100H60.5V20H59.5ZM90 19.5H60V20.5H90V19.5ZM94.5 15C94.5 17.4853 92.4853 19.5 90 19.5V20.5C93.0376 20.5 95.5 18.0376 95.5 15H94.5ZM90 10.5C92.4853 10.5 94.5 12.5147 94.5 15H95.5C95.5 11.9624 93.0376 9.5 90 9.5V10.5ZM20 10.5H90V9.5H20V10.5Z" fill="#AB0000" mask="url(#path-1-inside-1_1_15)"/>
</g>
<g filter="url(#filter1_d_1_15)">
<mask id="path-3-outside-2_1_15" maskUnits="userSpaceOnUse" x="64" y="64" width="132" height="42" fill="black">
<rect fill="white" x="64" y="64" width="132" height="42"/>
<path d="M68.088 104.96C67.256 104.96 66.52 104.672 65.88 104.096C65.24 103.52 64.92 102.752 64.92 101.792C64.92 101.472 64.984 101.056 65.112 100.544L77.112 68C77.56 66.912 78.232 66.08 79.128 65.504C80.024 64.928 80.984 64.64 82.008 64.64C83.032 64.64 83.992 64.928 84.888 65.504C85.848 66.08 86.552 66.912 87 68L99.768 100.544C99.896 101.056 99.96 101.472 99.96 101.792C99.96 102.752 99.64 103.52 99 104.096C98.36 104.672 97.624 104.96 96.792 104.96C96.216 104.96 95.608 104.8 94.968 104.48C94.392 104.224 93.944 103.776 93.624 103.136L90.456 94.688C90.392 94.304 90.136 94.112 89.688 94.112H75C74.552 94.112 74.264 94.304 74.136 94.688L71.256 103.136C70.936 103.776 70.456 104.224 69.816 104.48C69.24 104.8 68.664 104.96 68.088 104.96ZM77.88 88.352H86.52C86.904 88.352 87.192 88.224 87.384 87.968C87.64 87.648 87.704 87.264 87.576 86.816L82.968 73.664C82.776 73.024 82.488 72.704 82.104 72.704C81.656 72.704 81.336 73.024 81.144 73.664L76.824 86.912C76.696 87.296 76.728 87.648 76.92 87.968C77.176 88.224 77.496 88.352 77.88 88.352ZM118.706 104.96C115.89 104.96 113.17 104.48 110.546 103.52C107.986 102.56 106.002 101.184 104.594 99.392C104.082 98.688 103.826 97.984 103.826 97.28C103.826 96.448 104.146 95.744 104.786 95.168C105.49 94.528 106.258 94.208 107.09 94.208C107.538 94.208 107.986 94.304 108.434 94.496C108.882 94.624 109.234 94.88 109.49 95.264C110.514 96.48 111.89 97.44 113.618 98.144C115.41 98.848 117.266 99.2 119.186 99.2C121.426 99.2 123.25 98.656 124.658 97.568C126.13 96.48 126.866 95.04 126.866 93.248C126.866 91.2 126.002 89.76 124.274 88.928C122.61 88.032 120.658 87.392 118.418 87.008C116.37 86.624 114.29 86.08 112.178 85.376C110.066 84.608 108.306 83.52 106.898 82.112C105.49 80.64 104.786 78.656 104.786 76.16C104.786 72.768 106.066 70.08 108.626 68.096C111.25 66.112 114.738 65.12 119.09 65.12C121.394 65.12 123.506 65.472 125.426 66.176C127.346 66.816 128.946 67.712 130.226 68.864C130.994 69.504 131.378 70.304 131.378 71.264C131.378 72.032 131.09 72.704 130.514 73.28C129.938 73.856 129.266 74.144 128.498 74.144C127.73 74.144 126.994 73.888 126.29 73.376C124.242 71.712 121.714 70.88 118.706 70.88C113.586 70.88 111.026 72.608 111.026 76.064C111.026 77.728 111.794 78.88 113.33 79.52C114.93 80.096 117.074 80.704 119.762 81.344C121.042 81.6 122.418 81.984 123.89 82.496C125.426 82.944 126.898 83.616 128.306 84.512C129.714 85.344 130.866 86.496 131.762 87.968C132.658 89.376 133.106 91.168 133.106 93.344C133.106 96.8 131.762 99.616 129.074 101.792C126.45 103.904 122.994 104.96 118.706 104.96ZM151.309 104.96C150.285 104.96 149.453 104.672 148.813 104.096C148.237 103.52 147.949 102.784 147.949 101.888V73.952C147.949 72.352 147.117 71.552 145.453 71.552H139.405C137.421 71.552 136.429 70.56 136.429 68.576C136.429 66.592 137.421 65.6 139.405 65.6H163.117C164.013 65.6 164.749 65.888 165.325 66.464C165.901 66.976 166.189 67.68 166.189 68.576C166.189 69.472 165.901 70.208 165.325 70.784C164.749 71.296 164.013 71.552 163.117 71.552H157.165C155.501 71.552 154.669 72.352 154.669 73.952V101.888C154.669 102.784 154.349 103.52 153.709 104.096C153.133 104.672 152.333 104.96 151.309 104.96ZM176.756 104C175.156 104 173.876 103.52 172.916 102.56C171.956 101.6 171.476 100.32 171.476 98.72V70.592C171.476 69.12 171.956 67.936 172.916 67.04C173.94 66.08 175.124 65.6 176.468 65.6H190.964C192.052 65.6 192.82 65.888 193.268 66.464C193.78 66.976 194.036 67.648 194.036 68.48C194.036 69.248 193.748 69.92 193.172 70.496C192.66 71.072 191.924 71.36 190.964 71.36H180.692C179.028 71.36 178.196 72.192 178.196 73.856V79.136C178.196 80.8 178.964 81.632 180.5 81.632H190.004C191.092 81.632 191.86 81.92 192.308 82.496C192.82 83.072 193.076 83.744 193.076 84.512C193.076 85.216 192.788 85.888 192.212 86.528C191.7 87.104 190.964 87.392 190.004 87.392H180.5C178.964 87.392 178.196 88.192 178.196 89.792V95.648C178.196 97.312 178.996 98.144 180.596 98.144H191.924C193.012 98.144 193.78 98.464 194.228 99.104C194.74 99.68 194.996 100.352 194.996 101.12C194.996 101.888 194.708 102.56 194.132 103.136C193.62 103.712 192.884 104 191.924 104H176.756Z"/>
</mask>
<path d="M68.088 104.96C67.256 104.96 66.52 104.672 65.88 104.096C65.24 103.52 64.92 102.752 64.92 101.792C64.92 101.472 64.984 101.056 65.112 100.544L77.112 68C77.56 66.912 78.232 66.08 79.128 65.504C80.024 64.928 80.984 64.64 82.008 64.64C83.032 64.64 83.992 64.928 84.888 65.504C85.848 66.08 86.552 66.912 87 68L99.768 100.544C99.896 101.056 99.96 101.472 99.96 101.792C99.96 102.752 99.64 103.52 99 104.096C98.36 104.672 97.624 104.96 96.792 104.96C96.216 104.96 95.608 104.8 94.968 104.48C94.392 104.224 93.944 103.776 93.624 103.136L90.456 94.688C90.392 94.304 90.136 94.112 89.688 94.112H75C74.552 94.112 74.264 94.304 74.136 94.688L71.256 103.136C70.936 103.776 70.456 104.224 69.816 104.48C69.24 104.8 68.664 104.96 68.088 104.96ZM77.88 88.352H86.52C86.904 88.352 87.192 88.224 87.384 87.968C87.64 87.648 87.704 87.264 87.576 86.816L82.968 73.664C82.776 73.024 82.488 72.704 82.104 72.704C81.656 72.704 81.336 73.024 81.144 73.664L76.824 86.912C76.696 87.296 76.728 87.648 76.92 87.968C77.176 88.224 77.496 88.352 77.88 88.352ZM118.706 104.96C115.89 104.96 113.17 104.48 110.546 103.52C107.986 102.56 106.002 101.184 104.594 99.392C104.082 98.688 103.826 97.984 103.826 97.28C103.826 96.448 104.146 95.744 104.786 95.168C105.49 94.528 106.258 94.208 107.09 94.208C107.538 94.208 107.986 94.304 108.434 94.496C108.882 94.624 109.234 94.88 109.49 95.264C110.514 96.48 111.89 97.44 113.618 98.144C115.41 98.848 117.266 99.2 119.186 99.2C121.426 99.2 123.25 98.656 124.658 97.568C126.13 96.48 126.866 95.04 126.866 93.248C126.866 91.2 126.002 89.76 124.274 88.928C122.61 88.032 120.658 87.392 118.418 87.008C116.37 86.624 114.29 86.08 112.178 85.376C110.066 84.608 108.306 83.52 106.898 82.112C105.49 80.64 104.786 78.656 104.786 76.16C104.786 72.768 106.066 70.08 108.626 68.096C111.25 66.112 114.738 65.12 119.09 65.12C121.394 65.12 123.506 65.472 125.426 66.176C127.346 66.816 128.946 67.712 130.226 68.864C130.994 69.504 131.378 70.304 131.378 71.264C131.378 72.032 131.09 72.704 130.514 73.28C129.938 73.856 129.266 74.144 128.498 74.144C127.73 74.144 126.994 73.888 126.29 73.376C124.242 71.712 121.714 70.88 118.706 70.88C113.586 70.88 111.026 72.608 111.026 76.064C111.026 77.728 111.794 78.88 113.33 79.52C114.93 80.096 117.074 80.704 119.762 81.344C121.042 81.6 122.418 81.984 123.89 82.496C125.426 82.944 126.898 83.616 128.306 84.512C129.714 85.344 130.866 86.496 131.762 87.968C132.658 89.376 133.106 91.168 133.106 93.344C133.106 96.8 131.762 99.616 129.074 101.792C126.45 103.904 122.994 104.96 118.706 104.96ZM151.309 104.96C150.285 104.96 149.453 104.672 148.813 104.096C148.237 103.52 147.949 102.784 147.949 101.888V73.952C147.949 72.352 147.117 71.552 145.453 71.552H139.405C137.421 71.552 136.429 70.56 136.429 68.576C136.429 66.592 137.421 65.6 139.405 65.6H163.117C164.013 65.6 164.749 65.888 165.325 66.464C165.901 66.976 166.189 67.68 166.189 68.576C166.189 69.472 165.901 70.208 165.325 70.784C164.749 71.296 164.013 71.552 163.117 71.552H157.165C155.501 71.552 154.669 72.352 154.669 73.952V101.888C154.669 102.784 154.349 103.52 153.709 104.096C153.133 104.672 152.333 104.96 151.309 104.96ZM176.756 104C175.156 104 173.876 103.52 172.916 102.56C171.956 101.6 171.476 100.32 171.476 98.72V70.592C171.476 69.12 171.956 67.936 172.916 67.04C173.94 66.08 175.124 65.6 176.468 65.6H190.964C192.052 65.6 192.82 65.888 193.268 66.464C193.78 66.976 194.036 67.648 194.036 68.48C194.036 69.248 193.748 69.92 193.172 70.496C192.66 71.072 191.924 71.36 190.964 71.36H180.692C179.028 71.36 178.196 72.192 178.196 73.856V79.136C178.196 80.8 178.964 81.632 180.5 81.632H190.004C191.092 81.632 191.86 81.92 192.308 82.496C192.82 83.072 193.076 83.744 193.076 84.512C193.076 85.216 192.788 85.888 192.212 86.528C191.7 87.104 190.964 87.392 190.004 87.392H180.5C178.964 87.392 178.196 88.192 178.196 89.792V95.648C178.196 97.312 178.996 98.144 180.596 98.144H191.924C193.012 98.144 193.78 98.464 194.228 99.104C194.74 99.68 194.996 100.352 194.996 101.12C194.996 101.888 194.708 102.56 194.132 103.136C193.62 103.712 192.884 104 191.924 104H176.756Z" fill="#F54749"/>
<path d="M65.88 104.096L65.5455 104.468L65.5455 104.468L65.88 104.096ZM65.112 100.544L64.6429 100.371L64.6335 100.396L64.6269 100.423L65.112 100.544ZM77.112 68L76.6497 67.8096L76.6461 67.8183L76.6429 67.827L77.112 68ZM84.888 65.504L84.6176 65.9246L84.6241 65.9288L84.6308 65.9327L84.888 65.504ZM87 68L87.4655 67.8174L87.4623 67.8096L87 68ZM99.768 100.544L100.253 100.423L100.245 100.391L100.233 100.361L99.768 100.544ZM99 104.096L99.3345 104.468L99.3345 104.468L99 104.096ZM94.968 104.48L95.1916 104.033L95.1814 104.028L95.1711 104.023L94.968 104.48ZM93.624 103.136L93.1558 103.312L93.1651 103.336L93.1768 103.36L93.624 103.136ZM90.456 94.688L89.9628 94.7702L89.9708 94.8181L89.9878 94.8636L90.456 94.688ZM74.136 94.688L74.6093 94.8493L74.6103 94.8461L74.136 94.688ZM71.256 103.136L71.7032 103.36L71.7183 103.329L71.7293 103.297L71.256 103.136ZM69.816 104.48L69.6303 104.016L69.6009 104.028L69.5732 104.043L69.816 104.48ZM87.384 87.968L86.9936 87.6557L86.9887 87.6618L86.984 87.668L87.384 87.968ZM87.576 86.816L88.0568 86.6786L88.0527 86.6645L88.0479 86.6507L87.576 86.816ZM82.968 73.664L82.4891 73.8077L82.4924 73.8186L82.4961 73.8293L82.968 73.664ZM81.144 73.664L81.6195 73.8191L81.6229 73.8077L81.144 73.664ZM76.824 86.912L77.2984 87.0701L77.2994 87.067L76.824 86.912ZM76.92 87.968L76.4913 88.2252L76.5229 88.278L76.5664 88.3216L76.92 87.968ZM68.088 104.46C67.3842 104.46 66.7662 104.221 66.2145 103.724L65.5455 104.468C66.2738 105.123 67.1278 105.46 68.088 105.46V104.46ZM66.2145 103.724C65.6926 103.255 65.42 102.628 65.42 101.792H64.42C64.42 102.876 64.7874 103.785 65.5455 104.468L66.2145 103.724ZM65.42 101.792C65.42 101.531 65.4735 101.16 65.5971 100.665L64.6269 100.423C64.4945 100.952 64.42 101.413 64.42 101.792H65.42ZM65.5811 100.717L77.5811 68.173L76.6429 67.827L64.6429 100.371L65.5811 100.717ZM77.5743 68.1904C77.9877 67.1866 78.5974 66.4395 79.3984 65.9246L78.8576 65.0834C77.8666 65.7205 77.1323 66.6374 76.6497 67.8096L77.5743 68.1904ZM79.3984 65.9246C80.2171 65.3982 81.0839 65.14 82.008 65.14V64.14C80.8841 64.14 79.8309 64.4578 78.8576 65.0834L79.3984 65.9246ZM82.008 65.14C82.9321 65.14 83.7989 65.3982 84.6176 65.9246L85.1584 65.0834C84.1851 64.4578 83.1319 64.14 82.008 64.14V65.14ZM84.6308 65.9327C85.4936 66.4505 86.1284 67.1964 86.5377 68.1904L87.4623 67.8096C86.9756 66.6276 86.2024 65.7095 85.1452 65.0753L84.6308 65.9327ZM86.5345 68.1826L99.3025 100.727L100.233 100.361L87.4655 67.8174L86.5345 68.1826ZM99.2829 100.665C99.4065 101.16 99.46 101.531 99.46 101.792H100.46C100.46 101.413 100.385 100.952 100.253 100.423L99.2829 100.665ZM99.46 101.792C99.46 102.628 99.1874 103.255 98.6655 103.724L99.3345 104.468C100.093 103.785 100.46 102.876 100.46 101.792H99.46ZM98.6655 103.724C98.1138 104.221 97.4958 104.46 96.792 104.46V105.46C97.7522 105.46 98.6062 105.123 99.3345 104.468L98.6655 103.724ZM96.792 104.46C96.3101 104.46 95.7786 104.326 95.1916 104.033L94.7444 104.927C95.4374 105.274 96.1219 105.46 96.792 105.46V104.46ZM95.1711 104.023C94.7153 103.821 94.3468 103.464 94.0712 102.912L93.1768 103.36C93.5412 104.088 94.0687 104.627 94.7649 104.937L95.1711 104.023ZM94.0922 102.96L90.9242 94.5124L89.9878 94.8636L93.1558 103.312L94.0922 102.96ZM90.9492 94.6058C90.9009 94.316 90.7682 94.0452 90.516 93.856C90.2729 93.6736 89.978 93.612 89.688 93.612V94.612C89.846 94.612 89.9031 94.6464 89.916 94.656C89.9198 94.6588 89.9471 94.676 89.9628 94.7702L90.9492 94.6058ZM89.688 93.612H75V94.612H89.688V93.612ZM75 93.612C74.7061 93.612 74.4178 93.6752 74.1707 93.84C73.919 94.0077 73.7546 94.251 73.6617 94.5299L74.6103 94.8461C74.6454 94.741 74.689 94.6963 74.7254 94.672C74.7662 94.6448 74.8459 94.612 75 94.612V93.612ZM73.6627 94.5267L70.7827 102.975L71.7293 103.297L74.6093 94.8493L73.6627 94.5267ZM70.8088 102.912C70.5413 103.447 70.1519 103.807 69.6303 104.016L70.0017 104.944C70.7601 104.641 71.3307 104.105 71.7032 103.36L70.8088 102.912ZM69.5732 104.043C69.0606 104.328 68.5674 104.46 68.088 104.46V105.46C68.7606 105.46 69.4194 105.272 70.0588 104.917L69.5732 104.043ZM77.88 88.852H86.52V87.852H77.88V88.852ZM86.52 88.852C87.026 88.852 87.4782 88.6757 87.784 88.268L86.984 87.668C86.9058 87.7723 86.782 87.852 86.52 87.852V88.852ZM87.7744 88.2803C88.1466 87.8152 88.2222 87.2577 88.0568 86.6786L87.0952 86.9534C87.1858 87.2703 87.1334 87.4808 86.9936 87.6557L87.7744 88.2803ZM88.0479 86.6507L83.4399 73.4987L82.4961 73.8293L87.1041 86.9813L88.0479 86.6507ZM83.4469 73.5203C83.3402 73.1647 83.1928 72.8464 82.9796 72.6095C82.7536 72.3583 82.4558 72.204 82.104 72.204V73.204C82.1362 73.204 82.1744 73.2097 82.2364 73.2785C82.3112 73.3616 82.4038 73.5233 82.4891 73.8077L83.4469 73.5203ZM82.104 72.204C81.7459 72.204 81.4271 72.3377 81.1744 72.5904C80.9346 72.8302 80.7744 73.156 80.6651 73.5203L81.6229 73.8077C81.7056 73.532 81.8014 73.3778 81.8816 73.2976C81.9489 73.2303 82.0141 73.204 82.104 73.204V72.204ZM80.6686 73.509L76.3486 86.757L77.2994 87.067L81.6194 73.819L80.6686 73.509ZM76.3497 86.7539C76.1799 87.2631 76.2173 87.7686 76.4913 88.2252L77.3487 87.7108C77.2388 87.5274 77.2121 87.3289 77.2983 87.0701L76.3497 86.7539ZM76.5664 88.3216C76.9223 88.6775 77.3723 88.852 77.88 88.852V87.852C77.6197 87.852 77.4297 87.7705 77.2736 87.6144L76.5664 88.3216ZM110.546 103.52L110.371 103.988L110.374 103.99L110.546 103.52ZM104.594 99.392L104.19 99.6861L104.195 99.6936L104.201 99.7009L104.594 99.392ZM104.786 95.168L105.121 95.5397L105.123 95.538L104.786 95.168ZM108.434 94.496L108.237 94.9556L108.266 94.9681L108.297 94.9768L108.434 94.496ZM109.49 95.264L109.074 95.5413L109.09 95.5646L109.108 95.5861L109.49 95.264ZM113.618 98.144L113.43 98.6071L113.435 98.6094L113.618 98.144ZM124.658 97.568L124.361 97.1658L124.353 97.1724L124.658 97.568ZM124.274 88.928L124.037 89.3682L124.047 89.3736L124.057 89.3785L124.274 88.928ZM118.418 87.008L118.326 87.4995L118.334 87.5008L118.418 87.008ZM112.178 85.376L112.007 85.8461L112.02 85.8503L112.178 85.376ZM106.898 82.112L106.537 82.4577L106.545 82.4656L106.898 82.112ZM108.626 68.096L108.325 67.6971L108.32 67.7008L108.626 68.096ZM125.426 66.176L125.254 66.6454L125.261 66.648L125.268 66.6503L125.426 66.176ZM130.226 68.864L129.892 69.2356L129.899 69.242L129.906 69.2481L130.226 68.864ZM126.29 73.376L125.975 73.7641L125.985 73.7725L125.996 73.7804L126.29 73.376ZM113.33 79.52L113.138 79.9815L113.149 79.9863L113.161 79.9904L113.33 79.52ZM119.762 81.344L119.646 81.8304L119.655 81.8325L119.664 81.8343L119.762 81.344ZM123.89 82.496L123.726 82.9682L123.738 82.9724L123.75 82.976L123.89 82.496ZM128.306 84.512L128.038 84.9338L128.045 84.9383L128.052 84.9425L128.306 84.512ZM131.762 87.968L131.335 88.228L131.34 88.2364L131.762 87.968ZM129.074 101.792L129.388 102.182L129.389 102.181L129.074 101.792ZM118.706 104.46C115.948 104.46 113.287 103.99 110.718 103.05L110.374 103.99C113.054 104.97 115.832 105.46 118.706 105.46V104.46ZM110.722 103.052C108.23 102.118 106.328 100.79 104.987 99.0831L104.201 99.7009C105.676 101.578 107.742 103.002 110.371 103.988L110.722 103.052ZM104.999 99.0979C104.534 98.4589 104.326 97.8555 104.326 97.28H103.326C103.326 98.1125 103.631 98.9171 104.19 99.6861L104.999 99.0979ZM104.326 97.28C104.326 96.5953 104.582 96.0246 105.121 95.5396L104.452 94.7964C103.711 95.4634 103.326 96.3007 103.326 97.28H104.326ZM105.123 95.538C105.749 94.9688 106.401 94.708 107.09 94.708V93.708C106.116 93.708 105.232 94.0872 104.45 94.798L105.123 95.538ZM107.09 94.708C107.465 94.708 107.846 94.7879 108.237 94.9556L108.631 94.0364C108.126 93.8201 107.612 93.708 107.09 93.708V94.708ZM108.297 94.9768C108.632 95.0725 108.885 95.2571 109.074 95.5413L109.906 94.9866C109.584 94.5029 109.132 94.1755 108.572 94.0152L108.297 94.9768ZM109.108 95.5861C110.192 96.874 111.64 97.8778 113.43 98.607L113.807 97.681C112.141 97.0022 110.836 96.086 109.873 94.9419L109.108 95.5861ZM113.435 98.6094C115.285 99.3362 117.204 99.7 119.186 99.7V98.7C117.329 98.7 115.535 98.3598 113.801 97.6786L113.435 98.6094ZM119.186 99.7C121.508 99.7 123.448 99.1352 124.964 97.9636L124.353 97.1724C123.053 98.1768 121.345 98.7 119.186 98.7V99.7ZM124.955 97.9701C126.552 96.7902 127.366 95.2026 127.366 93.248H126.366C126.366 94.8774 125.709 96.1698 124.361 97.1659L124.955 97.9701ZM127.366 93.248C127.366 92.1533 127.135 91.1879 126.647 90.3748C126.158 89.5596 125.43 88.9297 124.491 88.4775L124.057 89.3785C124.846 89.7583 125.415 90.2644 125.79 90.8892C126.166 91.5161 126.366 92.2947 126.366 93.248H127.366ZM124.511 88.4878C122.791 87.5615 120.786 86.9065 118.503 86.5152L118.334 87.5008C120.531 87.8775 122.429 88.5025 124.037 89.3682L124.511 88.4878ZM118.51 86.5166C116.486 86.137 114.428 85.599 112.336 84.9017L112.02 85.8503C114.152 86.561 116.254 87.111 118.326 87.4994L118.51 86.5166ZM112.349 84.9061C110.297 84.1598 108.602 83.1085 107.252 81.7584L106.545 82.4656C108.011 83.9315 109.836 85.0561 112.007 85.8459L112.349 84.9061ZM107.26 81.7664C105.96 80.4074 105.286 78.5579 105.286 76.16H104.286C104.286 78.7541 105.021 80.8726 106.537 82.4576L107.26 81.7664ZM105.286 76.16C105.286 72.9141 106.501 70.3754 108.933 68.4912L108.32 67.7008C105.631 69.7846 104.286 72.6219 104.286 76.16H105.286ZM108.928 68.4948C111.441 66.5949 114.812 65.62 119.09 65.62V64.62C114.664 64.62 111.06 65.6291 108.325 67.6972L108.928 68.4948ZM119.09 65.62C121.343 65.62 123.396 65.964 125.254 66.6454L125.598 65.7066C123.617 64.98 121.446 64.62 119.09 64.62V65.62ZM125.268 66.6503C127.134 67.2724 128.671 68.137 129.892 69.2356L130.561 68.4924C129.221 67.287 127.558 66.3596 125.584 65.7017L125.268 66.6503ZM129.906 69.2481C130.566 69.7976 130.878 70.4593 130.878 71.264H131.878C131.878 70.1487 131.423 69.2104 130.546 68.4799L129.906 69.2481ZM130.878 71.264C130.878 71.8907 130.649 72.4379 130.161 72.9264L130.868 73.6336C131.531 72.9701 131.878 72.1733 131.878 71.264H130.878ZM130.161 72.9264C129.672 73.415 129.125 73.644 128.498 73.644V74.644C129.408 74.644 130.204 74.297 130.868 73.6336L130.161 72.9264ZM128.498 73.644C127.85 73.644 127.215 73.4301 126.584 72.9716L125.996 73.7804C126.774 74.3459 127.611 74.644 128.498 74.644V73.644ZM126.606 72.9879C124.456 71.2415 121.812 70.38 118.706 70.38V71.38C121.616 71.38 124.028 72.1825 125.975 73.7641L126.606 72.9879ZM118.706 70.38C116.106 70.38 114.067 70.816 112.667 71.7616C111.231 72.7308 110.526 74.193 110.526 76.064H111.526C111.526 74.479 112.102 73.3492 113.226 72.5904C114.385 71.808 116.187 71.38 118.706 71.38V70.38ZM110.526 76.064C110.526 76.9745 110.737 77.7799 111.186 78.4533C111.635 79.1268 112.297 79.6313 113.138 79.9815L113.523 79.0585C112.827 78.7687 112.337 78.3772 112.018 77.8986C111.699 77.4201 111.526 76.8175 111.526 76.064H110.526ZM113.161 79.9904C114.786 80.5754 116.95 81.1884 119.646 81.8304L119.878 80.8576C117.199 80.2196 115.075 79.6166 113.5 79.0496L113.161 79.9904ZM119.664 81.8343C120.918 82.085 122.272 82.4624 123.726 82.9682L124.055 82.0238C122.565 81.5056 121.167 81.115 119.86 80.8537L119.664 81.8343ZM123.75 82.976C125.239 83.4102 126.668 84.0621 128.038 84.9338L128.575 84.0902C127.129 83.1699 125.614 82.4778 124.03 82.016L123.75 82.976ZM128.052 84.9425C129.385 85.7304 130.479 86.8222 131.335 88.228L132.189 87.708C131.253 86.1698 130.043 84.9576 128.561 84.0815L128.052 84.9425ZM131.34 88.2364C132.172 89.5432 132.606 91.2347 132.606 93.344H133.606C133.606 91.1013 133.144 89.2088 132.184 87.6996L131.34 88.2364ZM132.606 93.344C132.606 96.649 131.33 99.3222 128.76 101.403L129.389 102.181C132.194 99.9098 133.606 96.951 133.606 93.344H132.606ZM128.761 101.402C126.247 103.425 122.912 104.46 118.706 104.46V105.46C123.077 105.46 126.653 104.383 129.388 102.182L128.761 101.402ZM148.813 104.096L148.459 104.45L148.468 104.459L148.478 104.468L148.813 104.096ZM165.325 66.464L164.971 66.8176L164.982 66.8279L164.993 66.8377L165.325 66.464ZM165.325 70.784L165.657 71.1577L165.668 71.1479L165.678 71.1376L165.325 70.784ZM153.709 104.096L153.374 103.724L153.364 103.733L153.355 103.742L153.709 104.096ZM151.309 104.46C150.384 104.46 149.679 104.203 149.147 103.724L148.478 104.468C149.227 105.141 150.186 105.46 151.309 105.46V104.46ZM149.166 103.742C148.694 103.27 148.449 102.666 148.449 101.888H147.449C147.449 102.902 147.78 103.77 148.459 104.45L149.166 103.742ZM148.449 101.888V73.952H147.449V101.888H148.449ZM148.449 73.952C148.449 73.0698 148.218 72.3176 147.671 71.7916C147.128 71.2691 146.357 71.052 145.453 71.052V72.052C146.212 72.052 146.69 72.2349 146.978 72.5124C147.263 72.7864 147.449 73.2342 147.449 73.952H148.449ZM145.453 71.052H139.405V72.052H145.453V71.052ZM139.405 71.052C138.49 71.052 137.895 70.8236 137.526 70.4544C137.157 70.0853 136.929 69.4909 136.929 68.576H135.929C135.929 69.6451 136.196 70.5387 136.819 71.1616C137.442 71.7844 138.336 72.052 139.405 72.052V71.052ZM136.929 68.576C136.929 67.6611 137.157 67.0667 137.526 66.6976C137.895 66.3284 138.49 66.1 139.405 66.1V65.1C138.336 65.1 137.442 65.3676 136.819 65.9904C136.196 66.6133 135.929 67.5069 135.929 68.576H136.929ZM139.405 66.1H163.117V65.1H139.405V66.1ZM163.117 66.1C163.895 66.1 164.499 66.3451 164.971 66.8176L165.678 66.1104C164.999 65.4309 164.131 65.1 163.117 65.1V66.1ZM164.993 66.8377C165.444 67.239 165.689 67.7972 165.689 68.576H166.689C166.689 67.5628 166.357 66.7129 165.657 66.0903L164.993 66.8377ZM165.689 68.576C165.689 69.354 165.444 69.958 164.971 70.4304L165.678 71.1376C166.358 70.458 166.689 69.59 166.689 68.576H165.689ZM164.993 70.4103C164.523 70.8279 163.911 71.052 163.117 71.052V72.052C164.114 72.052 164.975 71.7641 165.657 71.1577L164.993 70.4103ZM163.117 71.052H157.165V72.052H163.117V71.052ZM157.165 71.052C156.26 71.052 155.49 71.2691 154.946 71.7916C154.399 72.3176 154.169 73.0698 154.169 73.952H155.169C155.169 73.2342 155.354 72.7864 155.639 72.5124C155.928 72.2349 156.405 72.052 157.165 72.052V71.052ZM154.169 73.952V101.888H155.169V73.952H154.169ZM154.169 101.888C154.169 102.649 153.904 103.247 153.374 103.724L154.043 104.468C154.793 103.793 155.169 102.919 155.169 101.888H154.169ZM153.355 103.742C152.896 104.202 152.236 104.46 151.309 104.46V105.46C152.429 105.46 153.37 105.142 154.062 104.45L153.355 103.742ZM172.916 67.04L173.257 67.4055L173.258 67.4048L172.916 67.04ZM193.268 66.464L192.874 66.771L192.893 66.7955L192.915 66.8175L193.268 66.464ZM193.172 70.496L192.819 70.1424L192.808 70.1528L192.799 70.1638L193.172 70.496ZM192.308 82.496L191.914 82.803L191.924 82.8159L191.935 82.8282L192.308 82.496ZM192.212 86.528L191.841 86.1935L191.839 86.1958L192.212 86.528ZM194.228 99.104L193.819 99.3907L193.835 99.4145L193.855 99.4362L194.228 99.104ZM194.132 103.136L193.779 102.782L193.768 102.793L193.759 102.804L194.132 103.136ZM176.756 103.5C175.263 103.5 174.119 103.056 173.27 102.206L172.563 102.914C173.633 103.984 175.049 104.5 176.756 104.5V103.5ZM173.27 102.206C172.42 101.357 171.976 100.213 171.976 98.72H170.976C170.976 100.427 171.492 101.843 172.563 102.914L173.27 102.206ZM171.976 98.72V70.592H170.976V98.72H171.976ZM171.976 70.592C171.976 69.2401 172.412 68.195 173.257 67.4055L172.575 66.6745C171.501 67.677 170.976 68.9999 170.976 70.592H171.976ZM173.258 67.4048C174.194 66.5274 175.257 66.1 176.468 66.1V65.1C174.991 65.1 173.686 65.6326 172.574 66.6752L173.258 67.4048ZM176.468 66.1H190.964V65.1H176.468V66.1ZM190.964 66.1C191.976 66.1 192.56 66.3674 192.874 66.771L193.663 66.157C193.081 65.4085 192.128 65.1 190.964 65.1V66.1ZM192.915 66.8175C193.319 67.2216 193.536 67.7592 193.536 68.48H194.536C194.536 67.5368 194.242 66.7304 193.622 66.1104L192.915 66.8175ZM193.536 68.48C193.536 69.1067 193.307 69.6539 192.819 70.1424L193.526 70.8496C194.189 70.1861 194.536 69.3893 194.536 68.48H193.536ZM192.799 70.1638C192.404 70.6077 191.819 70.86 190.964 70.86V71.86C192.029 71.86 192.917 71.5363 193.546 70.8282L192.799 70.1638ZM190.964 70.86H180.692V71.86H190.964V70.86ZM180.692 70.86C179.783 70.86 179.01 71.0876 178.467 71.6304C177.924 72.1733 177.696 72.9469 177.696 73.856H178.696C178.696 73.1011 178.885 72.6267 179.174 72.3376C179.463 72.0484 179.937 71.86 180.692 71.86V70.86ZM177.696 73.856V79.136H178.696V73.856H177.696ZM177.696 79.136C177.696 80.0356 177.903 80.8035 178.405 81.3471C178.914 81.8984 179.644 82.132 180.5 82.132V81.132C179.82 81.132 179.399 80.9496 179.14 80.6689C178.873 80.3805 178.696 79.9004 178.696 79.136H177.696ZM180.5 82.132H190.004V81.132H180.5V82.132ZM190.004 82.132C191.016 82.132 191.6 82.3994 191.914 82.803L192.703 82.189C192.121 81.4406 191.168 81.132 190.004 81.132V82.132ZM191.935 82.8282C192.366 83.313 192.576 83.8669 192.576 84.512H193.576C193.576 83.6211 193.275 82.831 192.682 82.1638L191.935 82.8282ZM192.576 84.512C192.576 85.0664 192.353 85.6239 191.841 86.1935L192.584 86.8625C193.223 86.1521 193.576 85.3656 193.576 84.512H192.576ZM191.839 86.1958C191.444 86.6397 190.859 86.892 190.004 86.892V87.892C191.069 87.892 191.957 87.5683 192.586 86.8602L191.839 86.1958ZM190.004 86.892H180.5V87.892H190.004V86.892ZM180.5 86.892C179.65 86.892 178.922 87.1145 178.412 87.6457C177.905 88.1731 177.696 88.9199 177.696 89.792H178.696C178.696 89.0641 178.871 88.6109 179.133 88.3383C179.391 88.0695 179.815 87.892 180.5 87.892V86.892ZM177.696 89.792V95.648H178.696V89.792H177.696ZM177.696 95.648C177.696 96.5523 177.913 97.3232 178.436 97.8666C178.962 98.4136 179.714 98.644 180.596 98.644V97.644C179.878 97.644 179.431 97.4584 179.157 97.1734C178.879 96.8848 178.696 96.4077 178.696 95.648H177.696ZM180.596 98.644H191.924V97.644H180.596V98.644ZM191.924 98.644C192.918 98.644 193.498 98.9325 193.819 99.3907L194.638 98.8173C194.063 97.9955 193.106 97.644 191.924 97.644V98.644ZM193.855 99.4362C194.286 99.921 194.496 100.475 194.496 101.12H195.496C195.496 100.229 195.195 99.439 194.602 98.7718L193.855 99.4362ZM194.496 101.12C194.496 101.747 194.267 102.294 193.779 102.782L194.486 103.49C195.149 102.826 195.496 102.029 195.496 101.12H194.496ZM193.759 102.804C193.364 103.248 192.779 103.5 191.924 103.5V104.5C192.989 104.5 193.877 104.176 194.506 103.468L193.759 102.804ZM191.924 103.5H176.756V104.5H191.924V103.5Z" fill="#AB0000" mask="url(#path-3-outside-2_1_15)"/>
</g>
<g filter="url(#filter2_d_1_15)">
<mask id="path-5-inside-3_1_15" fill="white">
<path fill-rule="evenodd" clip-rule="evenodd" d="M175 25C172.239 25 170 27.2386 170 30C170 32.7614 172.239 35 175 35H205V115C205 117.761 207.239 120 210 120C212.761 120 215 117.761 215 115V35H245C247.761 35 250 32.7614 250 30C250 27.2386 247.761 25 245 25H175Z"/>
</mask>
<path fill-rule="evenodd" clip-rule="evenodd" d="M175 25C172.239 25 170 27.2386 170 30C170 32.7614 172.239 35 175 35H205V115C205 117.761 207.239 120 210 120C212.761 120 215 117.761 215 115V35H245C247.761 35 250 32.7614 250 30C250 27.2386 247.761 25 245 25H175Z" fill="#F54749"/>
<path d="M205 35H205.5V34.5H205V35ZM215 35V34.5H214.5V35H215ZM170.5 30C170.5 27.5147 172.515 25.5 175 25.5V24.5C171.962 24.5 169.5 26.9624 169.5 30H170.5ZM175 34.5C172.515 34.5 170.5 32.4853 170.5 30H169.5C169.5 33.0376 171.962 35.5 175 35.5V34.5ZM205 34.5H175V35.5H205V34.5ZM205.5 115V35H204.5V115H205.5ZM210 119.5C207.515 119.5 205.5 117.485 205.5 115H204.5C204.5 118.038 206.962 120.5 210 120.5V119.5ZM214.5 115C214.5 117.485 212.485 119.5 210 119.5V120.5C213.038 120.5 215.5 118.038 215.5 115H214.5ZM214.5 35V115H215.5V35H214.5ZM245 34.5H215V35.5H245V34.5ZM249.5 30C249.5 32.4853 247.485 34.5 245 34.5V35.5C248.038 35.5 250.5 33.0376 250.5 30H249.5ZM245 25.5C247.485 25.5 249.5 27.5147 249.5 30H250.5C250.5 26.9624 248.038 24.5 245 24.5V25.5ZM175 25.5H245V24.5H175V25.5Z" fill="#AB0000" mask="url(#path-5-inside-3_1_15)"/>
</g>
<g filter="url(#filter3_d_1_15)">
<mask id="path-7-outside-4_1_15" maskUnits="userSpaceOnUse" x="219" y="79" width="197" height="42" fill="black">
<rect fill="white" x="219" y="79" width="197" height="42"/>
<path d="M223.584 119.96C222.752 119.96 221.984 119.64 221.28 119C220.64 118.424 220.32 117.72 220.32 116.888V85.88C220.32 84.152 220.896 82.84 222.048 81.944C223.264 81.048 224.544 80.6 225.888 80.6H235.296C237.472 80.6 239.488 81.08 241.344 82.04C243.264 82.936 244.8 84.248 245.952 85.976C247.104 87.64 247.68 89.656 247.68 92.024C247.68 94.264 247.008 96.408 245.664 98.456C244.384 100.44 242.72 101.784 240.672 102.488C241.568 102.872 242.4 103.512 243.168 104.408C244 105.24 244.736 106.36 245.376 107.768L248.832 115.544C249.024 115.928 249.12 116.344 249.12 116.792C249.12 117.944 248.736 118.776 247.968 119.288C247.264 119.8 246.528 120.056 245.76 120.056C244.48 120.056 243.584 119.448 243.072 118.232L239.136 109.016C238.304 107.16 237.248 105.88 235.968 105.176C234.688 104.472 233.28 104.12 231.744 104.12H229.344C227.68 104.12 226.848 105.08 226.848 107V116.888C226.848 117.72 226.528 118.424 225.888 119C225.248 119.64 224.48 119.96 223.584 119.96ZM228.96 98.36H234.336C235.936 98.36 237.472 97.848 238.944 96.824C240.48 95.736 241.248 94.2 241.248 92.216C241.248 90.296 240.544 88.856 239.136 87.896C237.792 86.936 236.32 86.456 234.72 86.456H229.248C227.648 86.456 226.848 87.256 226.848 88.856V96.152C226.848 97.624 227.552 98.36 228.96 98.36ZM260.663 119C259.063 119 257.783 118.52 256.823 117.56C255.863 116.6 255.383 115.32 255.383 113.72V85.592C255.383 84.12 255.863 82.936 256.823 82.04C257.847 81.08 259.031 80.6 260.375 80.6H274.871C275.959 80.6 276.727 80.888 277.175 81.464C277.687 81.976 277.943 82.648 277.943 83.48C277.943 84.248 277.655 84.92 277.079 85.496C276.567 86.072 275.831 86.36 274.871 86.36H264.599C262.935 86.36 262.103 87.192 262.103 88.856V94.136C262.103 95.8 262.871 96.632 264.407 96.632H273.911C274.999 96.632 275.767 96.92 276.215 97.496C276.727 98.072 276.983 98.744 276.983 99.512C276.983 100.216 276.695 100.888 276.119 101.528C275.607 102.104 274.871 102.392 273.911 102.392H264.407C262.871 102.392 262.103 103.192 262.103 104.792V110.648C262.103 112.312 262.903 113.144 264.503 113.144H275.831C276.919 113.144 277.687 113.464 278.135 114.104C278.647 114.68 278.903 115.352 278.903 116.12C278.903 116.888 278.615 117.56 278.039 118.136C277.527 118.712 276.791 119 275.831 119H260.663ZM289.493 119.96C288.661 119.96 287.893 119.672 287.189 119.096C286.485 118.584 286.133 117.816 286.133 116.792V83.288C286.133 82.2 286.485 81.4 287.189 80.888C287.893 80.376 288.661 80.12 289.493 80.12C290.389 80.12 291.157 80.376 291.797 80.888C292.501 81.4 292.853 82.2 292.853 83.288V93.272C292.853 94.808 293.141 95.576 293.717 95.576C294.229 95.576 294.805 95.192 295.445 94.424L308.117 81.368C308.949 80.536 309.781 80.12 310.613 80.12C311.573 80.12 312.405 80.44 313.109 81.08C313.813 81.72 314.165 82.52 314.165 83.48C314.165 84.248 313.877 84.92 313.301 85.496L300.053 98.552L314.069 114.296C314.645 115 314.933 115.672 314.933 116.312C314.933 117.272 314.549 118.136 313.781 118.904C313.077 119.608 312.277 119.96 311.381 119.96C310.421 119.96 309.589 119.544 308.885 118.712L295.445 103.064L294.101 104.408C293.269 105.24 292.853 106.232 292.853 107.384V116.792C292.853 117.816 292.501 118.584 291.797 119.096C291.157 119.672 290.389 119.96 289.493 119.96ZM324.086 119.96C323.254 119.96 322.486 119.672 321.782 119.096C321.078 118.584 320.726 117.816 320.726 116.792V83.288C320.726 82.2 321.078 81.4 321.782 80.888C322.486 80.376 323.254 80.12 324.086 80.12C324.982 80.12 325.75 80.376 326.39 80.888C327.094 81.4 327.446 82.2 327.446 83.288V93.272C327.446 94.808 327.734 95.576 328.31 95.576C328.822 95.576 329.398 95.192 330.038 94.424L342.71 81.368C343.542 80.536 344.374 80.12 345.206 80.12C346.166 80.12 346.998 80.44 347.702 81.08C348.406 81.72 348.758 82.52 348.758 83.48C348.758 84.248 348.47 84.92 347.894 85.496L334.646 98.552L348.662 114.296C349.238 115 349.526 115.672 349.526 116.312C349.526 117.272 349.142 118.136 348.374 118.904C347.67 119.608 346.87 119.96 345.974 119.96C345.014 119.96 344.182 119.544 343.478 118.712L330.038 103.064L328.694 104.408C327.862 105.24 327.446 106.232 327.446 107.384V116.792C327.446 117.816 327.094 118.584 326.39 119.096C325.75 119.672 324.982 119.96 324.086 119.96ZM360.6 119C359 119 357.72 118.52 356.76 117.56C355.8 116.6 355.32 115.32 355.32 113.72V85.592C355.32 84.12 355.8 82.936 356.76 82.04C357.784 81.08 358.968 80.6 360.312 80.6H374.808C375.896 80.6 376.664 80.888 377.112 81.464C377.624 81.976 377.88 82.648 377.88 83.48C377.88 84.248 377.592 84.92 377.016 85.496C376.504 86.072 375.768 86.36 374.808 86.36H364.536C362.872 86.36 362.04 87.192 362.04 88.856V94.136C362.04 95.8 362.808 96.632 364.344 96.632H373.848C374.936 96.632 375.704 96.92 376.152 97.496C376.664 98.072 376.92 98.744 376.92 99.512C376.92 100.216 376.632 100.888 376.056 101.528C375.544 102.104 374.808 102.392 373.848 102.392H364.344C362.808 102.392 362.04 103.192 362.04 104.792V110.648C362.04 112.312 362.84 113.144 364.44 113.144H375.768C376.856 113.144 377.624 113.464 378.072 114.104C378.584 114.68 378.84 115.352 378.84 116.12C378.84 116.888 378.552 117.56 377.976 118.136C377.464 118.712 376.728 119 375.768 119H360.6ZM389.334 119.96C388.502 119.96 387.734 119.64 387.03 119C386.39 118.424 386.07 117.72 386.07 116.888V85.88C386.07 84.152 386.646 82.84 387.798 81.944C389.014 81.048 390.294 80.6 391.638 80.6H401.046C403.222 80.6 405.238 81.08 407.094 82.04C409.014 82.936 410.55 84.248 411.702 85.976C412.854 87.64 413.43 89.656 413.43 92.024C413.43 94.264 412.758 96.408 411.414 98.456C410.134 100.44 408.47 101.784 406.422 102.488C407.318 102.872 408.15 103.512 408.918 104.408C409.75 105.24 410.486 106.36 411.126 107.768L414.582 115.544C414.774 115.928 414.87 116.344 414.87 116.792C414.87 117.944 414.486 118.776 413.718 119.288C413.014 119.8 412.278 120.056 411.51 120.056C410.23 120.056 409.334 119.448 408.822 118.232L404.886 109.016C404.054 107.16 402.998 105.88 401.718 105.176C400.438 104.472 399.03 104.12 397.494 104.12H395.094C393.43 104.12 392.598 105.08 392.598 107V116.888C392.598 117.72 392.278 118.424 391.638 119C390.998 119.64 390.23 119.96 389.334 119.96ZM394.71 98.36H400.086C401.686 98.36 403.222 97.848 404.694 96.824C406.23 95.736 406.998 94.2 406.998 92.216C406.998 90.296 406.294 88.856 404.886 87.896C403.542 86.936 402.07 86.456 400.47 86.456H394.998C393.398 86.456 392.598 87.256 392.598 88.856V96.152C392.598 97.624 393.302 98.36 394.71 98.36Z"/>
</mask>
<path d="M223.584 119.96C222.752 119.96 221.984 119.64 221.28 119C220.64 118.424 220.32 117.72 220.32 116.888V85.88C220.32 84.152 220.896 82.84 222.048 81.944C223.264 81.048 224.544 80.6 225.888 80.6H235.296C237.472 80.6 239.488 81.08 241.344 82.04C243.264 82.936 244.8 84.248 245.952 85.976C247.104 87.64 247.68 89.656 247.68 92.024C247.68 94.264 247.008 96.408 245.664 98.456C244.384 100.44 242.72 101.784 240.672 102.488C241.568 102.872 242.4 103.512 243.168 104.408C244 105.24 244.736 106.36 245.376 107.768L248.832 115.544C249.024 115.928 249.12 116.344 249.12 116.792C249.12 117.944 248.736 118.776 247.968 119.288C247.264 119.8 246.528 120.056 245.76 120.056C244.48 120.056 243.584 119.448 243.072 118.232L239.136 109.016C238.304 107.16 237.248 105.88 235.968 105.176C234.688 104.472 233.28 104.12 231.744 104.12H229.344C227.68 104.12 226.848 105.08 226.848 107V116.888C226.848 117.72 226.528 118.424 225.888 119C225.248 119.64 224.48 119.96 223.584 119.96ZM228.96 98.36H234.336C235.936 98.36 237.472 97.848 238.944 96.824C240.48 95.736 241.248 94.2 241.248 92.216C241.248 90.296 240.544 88.856 239.136 87.896C237.792 86.936 236.32 86.456 234.72 86.456H229.248C227.648 86.456 226.848 87.256 226.848 88.856V96.152C226.848 97.624 227.552 98.36 228.96 98.36ZM260.663 119C259.063 119 257.783 118.52 256.823 117.56C255.863 116.6 255.383 115.32 255.383 113.72V85.592C255.383 84.12 255.863 82.936 256.823 82.04C257.847 81.08 259.031 80.6 260.375 80.6H274.871C275.959 80.6 276.727 80.888 277.175 81.464C277.687 81.976 277.943 82.648 277.943 83.48C277.943 84.248 277.655 84.92 277.079 85.496C276.567 86.072 275.831 86.36 274.871 86.36H264.599C262.935 86.36 262.103 87.192 262.103 88.856V94.136C262.103 95.8 262.871 96.632 264.407 96.632H273.911C274.999 96.632 275.767 96.92 276.215 97.496C276.727 98.072 276.983 98.744 276.983 99.512C276.983 100.216 276.695 100.888 276.119 101.528C275.607 102.104 274.871 102.392 273.911 102.392H264.407C262.871 102.392 262.103 103.192 262.103 104.792V110.648C262.103 112.312 262.903 113.144 264.503 113.144H275.831C276.919 113.144 277.687 113.464 278.135 114.104C278.647 114.68 278.903 115.352 278.903 116.12C278.903 116.888 278.615 117.56 278.039 118.136C277.527 118.712 276.791 119 275.831 119H260.663ZM289.493 119.96C288.661 119.96 287.893 119.672 287.189 119.096C286.485 118.584 286.133 117.816 286.133 116.792V83.288C286.133 82.2 286.485 81.4 287.189 80.888C287.893 80.376 288.661 80.12 289.493 80.12C290.389 80.12 291.157 80.376 291.797 80.888C292.501 81.4 292.853 82.2 292.853 83.288V93.272C292.853 94.808 293.141 95.576 293.717 95.576C294.229 95.576 294.805 95.192 295.445 94.424L308.117 81.368C308.949 80.536 309.781 80.12 310.613 80.12C311.573 80.12 312.405 80.44 313.109 81.08C313.813 81.72 314.165 82.52 314.165 83.48C314.165 84.248 313.877 84.92 313.301 85.496L300.053 98.552L314.069 114.296C314.645 115 314.933 115.672 314.933 116.312C314.933 117.272 314.549 118.136 313.781 118.904C313.077 119.608 312.277 119.96 311.381 119.96C310.421 119.96 309.589 119.544 308.885 118.712L295.445 103.064L294.101 104.408C293.269 105.24 292.853 106.232 292.853 107.384V116.792C292.853 117.816 292.501 118.584 291.797 119.096C291.157 119.672 290.389 119.96 289.493 119.96ZM324.086 119.96C323.254 119.96 322.486 119.672 321.782 119.096C321.078 118.584 320.726 117.816 320.726 116.792V83.288C320.726 82.2 321.078 81.4 321.782 80.888C322.486 80.376 323.254 80.12 324.086 80.12C324.982 80.12 325.75 80.376 326.39 80.888C327.094 81.4 327.446 82.2 327.446 83.288V93.272C327.446 94.808 327.734 95.576 328.31 95.576C328.822 95.576 329.398 95.192 330.038 94.424L342.71 81.368C343.542 80.536 344.374 80.12 345.206 80.12C346.166 80.12 346.998 80.44 347.702 81.08C348.406 81.72 348.758 82.52 348.758 83.48C348.758 84.248 348.47 84.92 347.894 85.496L334.646 98.552L348.662 114.296C349.238 115 349.526 115.672 349.526 116.312C349.526 117.272 349.142 118.136 348.374 118.904C347.67 119.608 346.87 119.96 345.974 119.96C345.014 119.96 344.182 119.544 343.478 118.712L330.038 103.064L328.694 104.408C327.862 105.24 327.446 106.232 327.446 107.384V116.792C327.446 117.816 327.094 118.584 326.39 119.096C325.75 119.672 324.982 119.96 324.086 119.96ZM360.6 119C359 119 357.72 118.52 356.76 117.56C355.8 116.6 355.32 115.32 355.32 113.72V85.592C355.32 84.12 355.8 82.936 356.76 82.04C357.784 81.08 358.968 80.6 360.312 80.6H374.808C375.896 80.6 376.664 80.888 377.112 81.464C377.624 81.976 377.88 82.648 377.88 83.48C377.88 84.248 377.592 84.92 377.016 85.496C376.504 86.072 375.768 86.36 374.808 86.36H364.536C362.872 86.36 362.04 87.192 362.04 88.856V94.136C362.04 95.8 362.808 96.632 364.344 96.632H373.848C374.936 96.632 375.704 96.92 376.152 97.496C376.664 98.072 376.92 98.744 376.92 99.512C376.92 100.216 376.632 100.888 376.056 101.528C375.544 102.104 374.808 102.392 373.848 102.392H364.344C362.808 102.392 362.04 103.192 362.04 104.792V110.648C362.04 112.312 362.84 113.144 364.44 113.144H375.768C376.856 113.144 377.624 113.464 378.072 114.104C378.584 114.68 378.84 115.352 378.84 116.12C378.84 116.888 378.552 117.56 377.976 118.136C377.464 118.712 376.728 119 375.768 119H360.6ZM389.334 119.96C388.502 119.96 387.734 119.64 387.03 119C386.39 118.424 386.07 117.72 386.07 116.888V85.88C386.07 84.152 386.646 82.84 387.798 81.944C389.014 81.048 390.294 80.6 391.638 80.6H401.046C403.222 80.6 405.238 81.08 407.094 82.04C409.014 82.936 410.55 84.248 411.702 85.976C412.854 87.64 413.43 89.656 413.43 92.024C413.43 94.264 412.758 96.408 411.414 98.456C410.134 100.44 408.47 101.784 406.422 102.488C407.318 102.872 408.15 103.512 408.918 104.408C409.75 105.24 410.486 106.36 411.126 107.768L414.582 115.544C414.774 115.928 414.87 116.344 414.87 116.792C414.87 117.944 414.486 118.776 413.718 119.288C413.014 119.8 412.278 120.056 411.51 120.056C410.23 120.056 409.334 119.448 408.822 118.232L404.886 109.016C404.054 107.16 402.998 105.88 401.718 105.176C400.438 104.472 399.03 104.12 397.494 104.12H395.094C393.43 104.12 392.598 105.08 392.598 107V116.888C392.598 117.72 392.278 118.424 391.638 119C390.998 119.64 390.23 119.96 389.334 119.96ZM394.71 98.36H400.086C401.686 98.36 403.222 97.848 404.694 96.824C406.23 95.736 406.998 94.2 406.998 92.216C406.998 90.296 406.294 88.856 404.886 87.896C403.542 86.936 402.07 86.456 400.47 86.456H394.998C393.398 86.456 392.598 87.256 392.598 88.856V96.152C392.598 97.624 393.302 98.36 394.71 98.36Z" fill="#F54749"/>
<path d="M221.28 119L221.616 118.63L221.614 118.628L221.28 119ZM222.048 81.944L221.751 81.5413L221.741 81.5493L222.048 81.944ZM241.344 82.04L241.114 82.4841L241.123 82.4888L241.133 82.4931L241.344 82.04ZM245.952 85.976L245.536 86.2534L245.541 86.2606L245.952 85.976ZM245.664 98.456L245.246 98.1817L245.244 98.1849L245.664 98.456ZM240.672 102.488L240.509 102.015L239.283 102.437L240.475 102.948L240.672 102.488ZM243.168 104.408L242.788 104.733L242.801 104.748L242.814 104.762L243.168 104.408ZM245.376 107.768L245.833 107.565L245.831 107.561L245.376 107.768ZM248.832 115.544L248.375 115.747L248.38 115.757L248.385 115.768L248.832 115.544ZM247.968 119.288L247.691 118.872L247.682 118.878L247.674 118.884L247.968 119.288ZM243.072 118.232L243.533 118.038L243.532 118.036L243.072 118.232ZM239.136 109.016L239.596 108.82L239.592 108.811L239.136 109.016ZM235.968 105.176L236.209 104.738L236.209 104.738L235.968 105.176ZM225.888 119L225.554 118.628L225.544 118.637L225.534 118.646L225.888 119ZM238.944 96.824L239.23 97.2345L239.233 97.232L238.944 96.824ZM239.136 87.896L238.845 88.303L238.854 88.3091L239.136 87.896ZM223.584 119.46C222.894 119.46 222.242 119.199 221.616 118.63L220.944 119.37C221.726 120.081 222.61 120.46 223.584 120.46V119.46ZM221.614 118.628C221.076 118.143 220.82 117.573 220.82 116.888H219.82C219.82 117.867 220.204 118.705 220.946 119.372L221.614 118.628ZM220.82 116.888V85.88H219.82V116.888H220.82ZM220.82 85.88C220.82 84.2744 221.348 83.122 222.355 82.3387L221.741 81.5493C220.444 82.558 219.82 84.0295 219.82 85.88H220.82ZM222.345 82.3465C223.486 81.5056 224.664 81.1 225.888 81.1V80.1C224.424 80.1 223.042 80.5904 221.751 81.5415L222.345 82.3465ZM225.888 81.1H235.296V80.1H225.888V81.1ZM235.296 81.1C237.395 81.1 239.332 81.5624 241.114 82.4841L241.574 81.5959C239.644 80.5976 237.549 80.1 235.296 80.1V81.1ZM241.133 82.4931C242.971 83.3512 244.436 84.6032 245.536 86.2533L246.368 85.6986C245.164 83.8928 243.557 82.5208 241.555 81.5869L241.133 82.4931ZM245.541 86.2606C246.626 87.8275 247.18 89.7399 247.18 92.024H248.18C248.18 89.5721 247.582 87.4525 246.363 85.6914L245.541 86.2606ZM247.18 92.024C247.18 94.1574 246.542 96.2072 245.246 98.1817L246.082 98.7303C247.474 96.6088 248.18 94.3706 248.18 92.024H247.18ZM245.244 98.1849C244.019 100.084 242.442 101.351 240.509 102.015L240.835 102.961C242.998 102.217 244.749 100.796 246.084 98.7271L245.244 98.1849ZM240.475 102.948C241.287 103.296 242.06 103.883 242.788 104.733L243.548 104.083C242.74 103.141 241.849 102.448 240.869 102.028L240.475 102.948ZM242.814 104.762C243.593 105.54 244.298 106.605 244.921 107.975L245.831 107.561C245.174 106.115 244.407 104.94 243.522 104.054L242.814 104.762ZM244.919 107.971L248.375 115.747L249.289 115.341L245.833 107.565L244.919 107.971ZM248.385 115.768C248.541 116.079 248.62 116.418 248.62 116.792H249.62C249.62 116.27 249.507 115.777 249.279 115.32L248.385 115.768ZM248.62 116.792C248.62 117.824 248.285 118.476 247.691 118.872L248.245 119.704C249.187 119.076 249.62 118.064 249.62 116.792H248.62ZM247.674 118.884C247.043 119.342 246.409 119.556 245.76 119.556V120.556C246.647 120.556 247.485 120.258 248.262 119.692L247.674 118.884ZM245.76 119.556C245.201 119.556 244.76 119.424 244.409 119.186C244.057 118.947 243.76 118.576 243.533 118.038L242.611 118.426C242.896 119.104 243.303 119.645 243.847 120.014C244.392 120.384 245.039 120.556 245.76 120.556V119.556ZM243.532 118.036L239.596 108.82L238.676 109.212L242.612 118.428L243.532 118.036ZM239.592 108.811C238.733 106.894 237.615 105.511 236.209 104.738L235.727 105.614C236.881 106.249 237.875 107.426 238.68 109.221L239.592 108.811ZM236.209 104.738C234.851 103.991 233.36 103.62 231.744 103.62V104.62C233.2 104.62 234.525 104.953 235.727 105.614L236.209 104.738ZM231.744 103.62H229.344V104.62H231.744V103.62ZM229.344 103.62C228.415 103.62 227.633 103.891 227.094 104.513C226.568 105.12 226.348 105.979 226.348 107H227.348C227.348 106.101 227.544 105.52 227.85 105.167C228.143 104.829 228.609 104.62 229.344 104.62V103.62ZM226.348 107V116.888H227.348V107H226.348ZM226.348 116.888C226.348 117.573 226.092 118.143 225.554 118.628L226.222 119.372C226.964 118.705 227.348 117.867 227.348 116.888H226.348ZM225.534 118.646C224.987 119.194 224.346 119.46 223.584 119.46V120.46C224.614 120.46 225.509 120.086 226.242 119.354L225.534 118.646ZM228.96 98.86H234.336V97.86H228.96V98.86ZM234.336 98.86C236.05 98.86 237.684 98.3094 239.23 97.2345L238.658 96.4135C237.26 97.3866 235.822 97.86 234.336 97.86V98.86ZM239.233 97.232C240.91 96.0444 241.748 94.3518 241.748 92.216H240.748C240.748 94.0482 240.05 95.4275 238.655 96.416L239.233 97.232ZM241.748 92.216C241.748 90.1551 240.981 88.549 239.418 87.4829L238.854 88.3091C240.107 89.163 240.748 90.4369 240.748 92.216H241.748ZM239.427 87.4891C238.001 86.4706 236.428 85.956 234.72 85.956V86.956C236.212 86.956 237.583 87.4013 238.845 88.3029L239.427 87.4891ZM234.72 85.956H229.248V86.956H234.72V85.956ZM229.248 85.956C228.371 85.956 227.621 86.1756 227.094 86.7024C226.568 87.2293 226.348 87.9789 226.348 88.856H227.348C227.348 88.1331 227.528 87.6827 227.802 87.4096C228.075 87.1364 228.525 86.956 229.248 86.956V85.956ZM226.348 88.856V96.152H227.348V88.856H226.348ZM226.348 96.152C226.348 96.9597 226.541 97.6582 227.015 98.1536C227.493 98.6532 228.173 98.86 228.96 98.86V97.86C228.339 97.86 227.963 97.6988 227.737 97.4624C227.507 97.2218 227.348 96.8163 227.348 96.152H226.348ZM256.823 82.04L257.164 82.4055L257.164 82.4048L256.823 82.04ZM277.175 81.464L276.78 81.771L276.799 81.7955L276.821 81.8175L277.175 81.464ZM277.079 85.496L276.725 85.1424L276.715 85.1528L276.705 85.1638L277.079 85.496ZM276.215 97.496L275.82 97.803L275.83 97.8159L275.841 97.8282L276.215 97.496ZM276.119 101.528L275.747 101.194L275.745 101.196L276.119 101.528ZM278.135 114.104L277.725 114.391L277.742 114.414L277.761 114.436L278.135 114.104ZM278.039 118.136L277.685 117.782L277.675 117.793L277.665 117.804L278.039 118.136ZM260.663 118.5C259.17 118.5 258.026 118.056 257.176 117.206L256.469 117.914C257.539 118.984 258.955 119.5 260.663 119.5V118.5ZM257.176 117.206C256.326 116.357 255.883 115.213 255.883 113.72H254.883C254.883 115.427 255.399 116.843 256.469 117.914L257.176 117.206ZM255.883 113.72V85.592H254.883V113.72H255.883ZM255.883 85.592C255.883 84.2401 256.318 83.195 257.164 82.4055L256.481 81.6745C255.407 82.677 254.883 83.9999 254.883 85.592H255.883ZM257.164 82.4048C258.1 81.5274 259.164 81.1 260.375 81.1V80.1C258.897 80.1 257.593 80.6326 256.481 81.6752L257.164 82.4048ZM260.375 81.1H274.871V80.1H260.375V81.1ZM274.871 81.1C275.882 81.1 276.466 81.3674 276.78 81.771L277.569 81.157C276.987 80.4085 276.035 80.1 274.871 80.1V81.1ZM276.821 81.8175C277.225 82.2216 277.443 82.7592 277.443 83.48H278.443C278.443 82.5368 278.148 81.7304 277.528 81.1104L276.821 81.8175ZM277.443 83.48C277.443 84.1067 277.213 84.6539 276.725 85.1424L277.432 85.8496C278.096 85.1861 278.443 84.3893 278.443 83.48H277.443ZM276.705 85.1638C276.31 85.6077 275.726 85.86 274.871 85.86V86.86C275.935 86.86 276.823 86.5363 277.452 85.8282L276.705 85.1638ZM274.871 85.86H264.599V86.86H274.871V85.86ZM264.599 85.86C263.689 85.86 262.916 86.0876 262.373 86.6304C261.83 87.1733 261.603 87.9469 261.603 88.856H262.603C262.603 88.1011 262.791 87.6267 263.08 87.3376C263.369 87.0484 263.844 86.86 264.599 86.86V85.86ZM261.603 88.856V94.136H262.603V88.856H261.603ZM261.603 94.136C261.603 95.0356 261.809 95.8035 262.311 96.3471C262.82 96.8984 263.551 97.132 264.407 97.132V96.132C263.726 96.132 263.305 95.9496 263.046 95.6689C262.78 95.3805 262.603 94.9004 262.603 94.136H261.603ZM264.407 97.132H273.911V96.132H264.407V97.132ZM273.911 97.132C274.922 97.132 275.506 97.3994 275.82 97.803L276.609 97.189C276.027 96.4406 275.075 96.132 273.911 96.132V97.132ZM275.841 97.8282C276.272 98.313 276.483 98.8669 276.483 99.512H277.483C277.483 98.6211 277.181 97.831 276.588 97.1638L275.841 97.8282ZM276.483 99.512C276.483 100.066 276.26 100.624 275.747 101.194L276.49 101.862C277.129 101.152 277.483 100.366 277.483 99.512H276.483ZM275.745 101.196C275.35 101.64 274.766 101.892 273.911 101.892V102.892C274.975 102.892 275.863 102.568 276.492 101.86L275.745 101.196ZM273.911 101.892H264.407V102.892H273.911V101.892ZM264.407 101.892C263.556 101.892 262.828 102.115 262.318 102.646C261.811 103.173 261.603 103.92 261.603 104.792H262.603C262.603 104.064 262.778 103.611 263.039 103.338C263.297 103.069 263.721 102.892 264.407 102.892V101.892ZM261.603 104.792V110.648H262.603V104.792H261.603ZM261.603 110.648C261.603 111.552 261.82 112.323 262.342 112.867C262.868 113.414 263.62 113.644 264.503 113.644V112.644C263.785 112.644 263.337 112.458 263.063 112.173C262.785 111.885 262.603 111.408 262.603 110.648H261.603ZM264.503 113.644H275.831V112.644H264.503V113.644ZM275.831 113.644C276.825 113.644 277.404 113.933 277.725 114.391L278.544 113.817C277.969 112.995 277.012 112.644 275.831 112.644V113.644ZM277.761 114.436C278.192 114.921 278.403 115.475 278.403 116.12H279.403C279.403 115.229 279.101 114.439 278.508 113.772L277.761 114.436ZM278.403 116.12C278.403 116.747 278.173 117.294 277.685 117.782L278.392 118.49C279.056 117.826 279.403 117.029 279.403 116.12H278.403ZM277.665 117.804C277.27 118.248 276.686 118.5 275.831 118.5V119.5C276.895 119.5 277.783 119.176 278.412 118.468L277.665 117.804ZM275.831 118.5H260.663V119.5H275.831V118.5ZM287.189 119.096L287.505 118.709L287.494 118.7L287.483 118.692L287.189 119.096ZM287.189 80.888L287.483 81.2924L287.483 81.2924L287.189 80.888ZM291.797 80.888L291.484 81.2784L291.493 81.2856L291.502 81.2924L291.797 80.888ZM295.445 94.424L295.086 94.0758L295.073 94.0894L295.06 94.1039L295.445 94.424ZM308.117 81.368L307.763 81.0144L307.758 81.0198L308.117 81.368ZM313.109 81.08L312.772 81.45L312.772 81.45L313.109 81.08ZM313.301 85.496L313.651 85.8521L313.654 85.8496L313.301 85.496ZM300.053 98.552L299.702 98.1959L299.363 98.5295L299.679 98.8845L300.053 98.552ZM314.069 114.296L314.455 113.979L314.449 113.971L314.442 113.964L314.069 114.296ZM313.781 118.904L313.427 118.55L313.427 118.55L313.781 118.904ZM308.885 118.712L309.266 118.389L309.264 118.386L308.885 118.712ZM295.445 103.064L295.824 102.738L295.472 102.329L295.091 102.71L295.445 103.064ZM294.101 104.408L294.454 104.762L294.454 104.762L294.101 104.408ZM291.797 119.096L291.502 118.692L291.481 118.707L291.462 118.724L291.797 119.096ZM289.493 119.46C288.787 119.46 288.129 119.219 287.505 118.709L286.872 119.483C287.656 120.125 288.534 120.46 289.493 120.46V119.46ZM287.483 118.692C286.932 118.291 286.633 117.688 286.633 116.792H285.633C285.633 117.944 286.037 118.877 286.894 119.5L287.483 118.692ZM286.633 116.792V83.288H285.633V116.792H286.633ZM286.633 83.288C286.633 82.3154 286.94 81.6868 287.483 81.2924L286.894 80.4836C286.029 81.1132 285.633 82.0846 285.633 83.288H286.633ZM287.483 81.2924C288.105 80.8395 288.771 80.62 289.493 80.62V79.62C288.55 79.62 287.68 79.9125 286.894 80.4836L287.483 81.2924ZM289.493 80.62C290.286 80.62 290.941 80.8441 291.484 81.2784L292.109 80.4976C291.372 79.9079 290.491 79.62 289.493 79.62V80.62ZM291.502 81.2924C292.045 81.6868 292.353 82.3154 292.353 83.288H293.353C293.353 82.0846 292.956 81.1132 292.091 80.4836L291.502 81.2924ZM292.353 83.288V93.272H293.353V83.288H292.353ZM292.353 93.272C292.353 94.057 292.424 94.7058 292.6 95.1756C292.69 95.4137 292.817 95.6378 293.006 95.8057C293.205 95.9827 293.45 96.076 293.717 96.076V95.076C293.695 95.076 293.688 95.0732 293.671 95.0583C293.644 95.0342 293.591 94.9703 293.537 94.8244C293.425 94.5262 293.353 94.023 293.353 93.272H292.353ZM293.717 96.076C294.469 96.076 295.175 95.528 295.829 94.7441L295.06 94.1039C294.434 94.856 293.988 95.076 293.717 95.076V96.076ZM295.803 94.7722L308.475 81.7162L307.758 81.0198L295.086 94.0758L295.803 94.7722ZM308.47 81.7216C309.248 80.944 309.96 80.62 310.613 80.62V79.62C309.601 79.62 308.649 80.1279 307.763 81.0144L308.47 81.7216ZM310.613 80.62C311.449 80.62 312.161 80.8945 312.772 81.45L313.445 80.71C312.648 79.9855 311.696 79.62 310.613 79.62V80.62ZM312.772 81.45C313.371 81.9942 313.665 82.6594 313.665 83.48H314.665C314.665 82.3806 314.254 81.4458 313.445 80.71L312.772 81.45ZM313.665 83.48C313.665 84.1067 313.435 84.6539 312.947 85.1424L313.654 85.8496C314.318 85.1861 314.665 84.3893 314.665 83.48H313.665ZM312.95 85.1399L299.702 98.1959L300.403 98.9081L313.651 85.8521L312.95 85.1399ZM299.679 98.8845L313.695 114.628L314.442 113.964L300.426 98.2195L299.679 98.8845ZM313.682 114.613C314.215 115.264 314.433 115.827 314.433 116.312H315.433C315.433 115.517 315.074 114.736 314.455 113.979L313.682 114.613ZM314.433 116.312C314.433 117.122 314.115 117.863 313.427 118.55L314.134 119.258C314.982 118.409 315.433 117.422 315.433 116.312H314.433ZM313.427 118.55C312.805 119.172 312.129 119.46 311.381 119.46V120.46C312.424 120.46 313.348 120.044 314.134 119.258L313.427 118.55ZM311.381 119.46C310.588 119.46 309.89 119.126 309.266 118.389L308.503 119.035C309.287 119.962 310.253 120.46 311.381 120.46V119.46ZM309.264 118.386L295.824 102.738L295.065 103.39L308.505 119.038L309.264 118.386ZM295.091 102.71L293.747 104.054L294.454 104.762L295.798 103.418L295.091 102.71ZM293.747 104.054C292.823 104.978 292.353 106.096 292.353 107.384H293.353C293.353 106.368 293.714 105.502 294.454 104.762L293.747 104.054ZM292.353 107.384V116.792H293.353V107.384H292.353ZM292.353 116.792C292.353 117.688 292.053 118.291 291.502 118.692L292.091 119.5C292.948 118.877 293.353 117.944 293.353 116.792H292.353ZM291.462 118.724C290.918 119.214 290.27 119.46 289.493 119.46V120.46C290.507 120.46 291.395 120.13 292.131 119.468L291.462 118.724ZM321.782 119.096L322.099 118.709L322.088 118.7L322.076 118.692L321.782 119.096ZM321.782 80.888L322.076 81.2924L322.076 81.2924L321.782 80.888ZM326.39 80.888L326.078 81.2784L326.087 81.2856L326.096 81.2924L326.39 80.888ZM330.038 94.424L329.679 94.0758L329.666 94.0894L329.654 94.1039L330.038 94.424ZM342.71 81.368L342.357 81.0144L342.351 81.0198L342.71 81.368ZM347.702 81.08L347.366 81.45L347.366 81.45L347.702 81.08ZM347.894 85.496L348.245 85.8521L348.248 85.8496L347.894 85.496ZM334.646 98.552L334.295 98.1959L333.957 98.5295L334.273 98.8845L334.646 98.552ZM348.662 114.296L349.049 113.979L349.043 113.971L349.036 113.964L348.662 114.296ZM348.374 118.904L348.021 118.55L348.021 118.55L348.374 118.904ZM343.478 118.712L343.86 118.389L343.858 118.386L343.478 118.712ZM330.038 103.064L330.418 102.738L330.066 102.329L329.685 102.71L330.038 103.064ZM328.694 104.408L329.048 104.762L329.048 104.762L328.694 104.408ZM326.39 119.096L326.096 118.692L326.075 118.707L326.056 118.724L326.39 119.096ZM324.086 119.46C323.381 119.46 322.722 119.219 322.099 118.709L321.466 119.483C322.25 120.125 323.128 120.46 324.086 120.46V119.46ZM322.076 118.692C321.526 118.291 321.226 117.688 321.226 116.792H320.226C320.226 117.944 320.631 118.877 321.488 119.5L322.076 118.692ZM321.226 116.792V83.288H320.226V116.792H321.226ZM321.226 83.288C321.226 82.3154 321.534 81.6868 322.076 81.2924L321.488 80.4836C320.623 81.1132 320.226 82.0846 320.226 83.288H321.226ZM322.076 81.2924C322.699 80.8395 323.365 80.62 324.086 80.62V79.62C323.143 79.62 322.273 79.9125 321.488 80.4836L322.076 81.2924ZM324.086 80.62C324.88 80.62 325.535 80.8441 326.078 81.2784L326.703 80.4976C325.966 79.9079 325.085 79.62 324.086 79.62V80.62ZM326.096 81.2924C326.639 81.6868 326.946 82.3154 326.946 83.288H327.946C327.946 82.0846 327.55 81.1132 326.684 80.4836L326.096 81.2924ZM326.946 83.288V93.272H327.946V83.288H326.946ZM326.946 93.272C326.946 94.057 327.018 94.7058 327.194 95.1756C327.283 95.4137 327.411 95.6378 327.6 95.8057C327.799 95.9827 328.043 96.076 328.31 96.076V95.076C328.289 95.076 328.281 95.0732 328.264 95.0583C328.237 95.0342 328.185 94.9703 328.13 94.8244C328.019 94.5262 327.946 94.023 327.946 93.272H326.946ZM328.31 96.076C329.063 96.076 329.769 95.528 330.422 94.7441L329.654 94.1039C329.027 94.856 328.582 95.076 328.31 95.076V96.076ZM330.397 94.7722L343.069 81.7162L342.351 81.0198L329.679 94.0758L330.397 94.7722ZM343.064 81.7216C343.841 80.944 344.554 80.62 345.206 80.62V79.62C344.195 79.62 343.243 80.1279 342.357 81.0144L343.064 81.7216ZM345.206 80.62C346.043 80.62 346.755 80.8945 347.366 81.45L348.039 80.71C347.242 79.9855 346.289 79.62 345.206 79.62V80.62ZM347.366 81.45C347.965 81.9942 348.258 82.6594 348.258 83.48H349.258C349.258 82.3806 348.848 81.4458 348.039 80.71L347.366 81.45ZM348.258 83.48C348.258 84.1067 348.029 84.6539 347.541 85.1424L348.248 85.8496C348.911 85.1861 349.258 84.3893 349.258 83.48H348.258ZM347.543 85.1399L334.295 98.1959L334.997 98.9081L348.245 85.8521L347.543 85.1399ZM334.273 98.8845L348.289 114.628L349.036 113.964L335.02 98.2195L334.273 98.8845ZM348.275 114.613C348.808 115.264 349.026 115.827 349.026 116.312H350.026C350.026 115.517 349.668 114.736 349.049 113.979L348.275 114.613ZM349.026 116.312C349.026 117.122 348.708 117.863 348.021 118.55L348.728 119.258C349.576 118.409 350.026 117.422 350.026 116.312H349.026ZM348.021 118.55C347.399 119.172 346.722 119.46 345.974 119.46V120.46C347.018 120.46 347.941 120.044 348.728 119.258L348.021 118.55ZM345.974 119.46C345.182 119.46 344.483 119.126 343.86 118.389L343.097 119.035C343.881 119.962 344.846 120.46 345.974 120.46V119.46ZM343.858 118.386L330.418 102.738L329.659 103.39L343.099 119.038L343.858 118.386ZM329.685 102.71L328.341 104.054L329.048 104.762L330.392 103.418L329.685 102.71ZM328.341 104.054C327.417 104.978 326.946 106.096 326.946 107.384H327.946C327.946 106.368 328.307 105.502 329.048 104.762L328.341 104.054ZM326.946 107.384V116.792H327.946V107.384H326.946ZM326.946 116.792C326.946 117.688 326.647 118.291 326.096 118.692L326.684 119.5C327.542 118.877 327.946 117.944 327.946 116.792H326.946ZM326.056 118.724C325.512 119.214 324.864 119.46 324.086 119.46V120.46C325.1 120.46 325.989 120.13 326.725 119.468L326.056 118.724ZM356.76 82.04L357.101 82.4055L357.102 82.4048L356.76 82.04ZM377.112 81.464L376.717 81.771L376.736 81.7955L376.758 81.8175L377.112 81.464ZM377.016 85.496L376.662 85.1424L376.652 85.1528L376.642 85.1638L377.016 85.496ZM376.152 97.496L375.757 97.803L375.767 97.8159L375.778 97.8282L376.152 97.496ZM376.056 101.528L375.684 101.194L375.682 101.196L376.056 101.528ZM378.072 114.104L377.662 114.391L377.679 114.414L377.698 114.436L378.072 114.104ZM377.976 118.136L377.622 117.782L377.612 117.793L377.602 117.804L377.976 118.136ZM360.6 118.5C359.107 118.5 357.963 118.056 357.114 117.206L356.406 117.914C357.477 118.984 358.893 119.5 360.6 119.5V118.5ZM357.114 117.206C356.264 116.357 355.82 115.213 355.82 113.72H354.82C354.82 115.427 355.336 116.843 356.406 117.914L357.114 117.206ZM355.82 113.72V85.592H354.82V113.72H355.82ZM355.82 85.592C355.82 84.2401 356.255 83.195 357.101 82.4055L356.419 81.6745C355.345 82.677 354.82 83.9999 354.82 85.592H355.82ZM357.102 82.4048C358.038 81.5274 359.101 81.1 360.312 81.1V80.1C358.835 80.1 357.53 80.6326 356.418 81.6752L357.102 82.4048ZM360.312 81.1H374.808V80.1H360.312V81.1ZM374.808 81.1C375.82 81.1 376.403 81.3674 376.717 81.771L377.507 81.157C376.925 80.4085 375.972 80.1 374.808 80.1V81.1ZM376.758 81.8175C377.163 82.2216 377.38 82.7592 377.38 83.48H378.38C378.38 82.5368 378.085 81.7304 377.466 81.1104L376.758 81.8175ZM377.38 83.48C377.38 84.1067 377.151 84.6539 376.662 85.1424L377.37 85.8496C378.033 85.1861 378.38 84.3893 378.38 83.48H377.38ZM376.642 85.1638C376.248 85.6077 375.663 85.86 374.808 85.86V86.86C375.873 86.86 376.76 86.5363 377.39 85.8282L376.642 85.1638ZM374.808 85.86H364.536V86.86H374.808V85.86ZM364.536 85.86C363.627 85.86 362.853 86.0876 362.31 86.6304C361.768 87.1733 361.54 87.9469 361.54 88.856H362.54C362.54 88.1011 362.728 87.6267 363.018 87.3376C363.307 87.0484 363.781 86.86 364.536 86.86V85.86ZM361.54 88.856V94.136H362.54V88.856H361.54ZM361.54 94.136C361.54 95.0356 361.747 95.8035 362.249 96.3471C362.757 96.8984 363.488 97.132 364.344 97.132V96.132C363.664 96.132 363.243 95.9496 362.983 95.6689C362.717 95.3805 362.54 94.9004 362.54 94.136H361.54ZM364.344 97.132H373.848V96.132H364.344V97.132ZM373.848 97.132C374.86 97.132 375.443 97.3994 375.757 97.803L376.547 97.189C375.965 96.4406 375.012 96.132 373.848 96.132V97.132ZM375.778 97.8282C376.209 98.313 376.42 98.8669 376.42 99.512H377.42C377.42 98.6211 377.119 97.831 376.526 97.1638L375.778 97.8282ZM376.42 99.512C376.42 100.066 376.197 100.624 375.684 101.194L376.428 101.862C377.067 101.152 377.42 100.366 377.42 99.512H376.42ZM375.682 101.196C375.288 101.64 374.703 101.892 373.848 101.892V102.892C374.913 102.892 375.8 102.568 376.43 101.86L375.682 101.196ZM373.848 101.892H364.344V102.892H373.848V101.892ZM364.344 101.892C363.494 101.892 362.765 102.115 362.255 102.646C361.749 103.173 361.54 103.92 361.54 104.792H362.54C362.54 104.064 362.715 103.611 362.977 103.338C363.235 103.069 363.658 102.892 364.344 102.892V101.892ZM361.54 104.792V110.648H362.54V104.792H361.54ZM361.54 110.648C361.54 111.552 361.757 112.323 362.28 112.867C362.806 113.414 363.558 113.644 364.44 113.644V112.644C363.722 112.644 363.274 112.458 363 112.173C362.723 111.885 362.54 111.408 362.54 110.648H361.54ZM364.44 113.644H375.768V112.644H364.44V113.644ZM375.768 113.644C376.762 113.644 377.342 113.933 377.662 114.391L378.482 113.817C377.906 112.995 376.95 112.644 375.768 112.644V113.644ZM377.698 114.436C378.129 114.921 378.34 115.475 378.34 116.12H379.34C379.34 115.229 379.039 114.439 378.446 113.772L377.698 114.436ZM378.34 116.12C378.34 116.747 378.111 117.294 377.622 117.782L378.33 118.49C378.993 117.826 379.34 117.029 379.34 116.12H378.34ZM377.602 117.804C377.208 118.248 376.623 118.5 375.768 118.5V119.5C376.833 119.5 377.72 119.176 378.35 118.468L377.602 117.804ZM375.768 118.5H360.6V119.5H375.768V118.5ZM387.03 119L387.366 118.63L387.364 118.628L387.03 119ZM387.798 81.944L387.501 81.5413L387.491 81.5493L387.798 81.944ZM407.094 82.04L406.864 82.4841L406.873 82.4888L406.883 82.4931L407.094 82.04ZM411.702 85.976L411.286 86.2534L411.291 86.2606L411.702 85.976ZM411.414 98.456L410.996 98.1817L410.994 98.1849L411.414 98.456ZM406.422 102.488L406.259 102.015L405.033 102.437L406.225 102.948L406.422 102.488ZM408.918 104.408L408.538 104.733L408.551 104.748L408.564 104.762L408.918 104.408ZM411.126 107.768L411.583 107.565L411.581 107.561L411.126 107.768ZM414.582 115.544L414.125 115.747L414.13 115.757L414.135 115.768L414.582 115.544ZM413.718 119.288L413.441 118.872L413.432 118.878L413.424 118.884L413.718 119.288ZM408.822 118.232L409.283 118.038L409.282 118.036L408.822 118.232ZM404.886 109.016L405.346 108.82L405.342 108.811L404.886 109.016ZM401.718 105.176L401.959 104.738L401.959 104.738L401.718 105.176ZM391.638 119L391.304 118.628L391.294 118.637L391.284 118.646L391.638 119ZM404.694 96.824L404.98 97.2345L404.983 97.232L404.694 96.824ZM404.886 87.896L404.595 88.303L404.604 88.3091L404.886 87.896ZM389.334 119.46C388.644 119.46 387.992 119.199 387.366 118.63L386.694 119.37C387.476 120.081 388.36 120.46 389.334 120.46V119.46ZM387.364 118.628C386.826 118.143 386.57 117.573 386.57 116.888H385.57C385.57 117.867 385.954 118.705 386.696 119.372L387.364 118.628ZM386.57 116.888V85.88H385.57V116.888H386.57ZM386.57 85.88C386.57 84.2744 387.098 83.122 388.105 82.3387L387.491 81.5493C386.194 82.558 385.57 84.0295 385.57 85.88H386.57ZM388.095 82.3465C389.236 81.5056 390.414 81.1 391.638 81.1V80.1C390.174 80.1 388.792 80.5904 387.501 81.5415L388.095 82.3465ZM391.638 81.1H401.046V80.1H391.638V81.1ZM401.046 81.1C403.145 81.1 405.082 81.5624 406.864 82.4841L407.324 81.5959C405.394 80.5976 403.299 80.1 401.046 80.1V81.1ZM406.883 82.4931C408.721 83.3512 410.186 84.6032 411.286 86.2533L412.118 85.6986C410.914 83.8928 409.307 82.5208 407.305 81.5869L406.883 82.4931ZM411.291 86.2606C412.376 87.8275 412.93 89.7399 412.93 92.024H413.93C413.93 89.5721 413.332 87.4525 412.113 85.6914L411.291 86.2606ZM412.93 92.024C412.93 94.1574 412.292 96.2072 410.996 98.1817L411.832 98.7303C413.224 96.6088 413.93 94.3706 413.93 92.024H412.93ZM410.994 98.1849C409.769 100.084 408.192 101.351 406.259 102.015L406.585 102.961C408.748 102.217 410.499 100.796 411.834 98.7271L410.994 98.1849ZM406.225 102.948C407.037 103.296 407.81 103.883 408.538 104.733L409.298 104.083C408.49 103.141 407.599 102.448 406.619 102.028L406.225 102.948ZM408.564 104.762C409.343 105.54 410.048 106.605 410.671 107.975L411.581 107.561C410.924 106.115 410.157 104.94 409.272 104.054L408.564 104.762ZM410.669 107.971L414.125 115.747L415.039 115.341L411.583 107.565L410.669 107.971ZM414.135 115.768C414.291 116.079 414.37 116.418 414.37 116.792H415.37C415.37 116.27 415.257 115.777 415.029 115.32L414.135 115.768ZM414.37 116.792C414.37 117.824 414.035 118.476 413.441 118.872L413.995 119.704C414.937 119.076 415.37 118.064 415.37 116.792H414.37ZM413.424 118.884C412.793 119.342 412.159 119.556 411.51 119.556V120.556C412.397 120.556 413.235 120.258 414.012 119.692L413.424 118.884ZM411.51 119.556C410.951 119.556 410.51 119.424 410.159 119.186C409.807 118.947 409.51 118.576 409.283 118.038L408.361 118.426C408.646 119.104 409.053 119.645 409.597 120.014C410.142 120.384 410.789 120.556 411.51 120.556V119.556ZM409.282 118.036L405.346 108.82L404.426 109.212L408.362 118.428L409.282 118.036ZM405.342 108.811C404.483 106.894 403.365 105.511 401.959 104.738L401.477 105.614C402.631 106.249 403.625 107.426 404.43 109.221L405.342 108.811ZM401.959 104.738C400.601 103.991 399.11 103.62 397.494 103.62V104.62C398.95 104.62 400.275 104.953 401.477 105.614L401.959 104.738ZM397.494 103.62H395.094V104.62H397.494V103.62ZM395.094 103.62C394.165 103.62 393.383 103.891 392.844 104.513C392.318 105.12 392.098 105.979 392.098 107H393.098C393.098 106.101 393.294 105.52 393.6 105.167C393.893 104.829 394.359 104.62 395.094 104.62V103.62ZM392.098 107V116.888H393.098V107H392.098ZM392.098 116.888C392.098 117.573 391.842 118.143 391.304 118.628L391.972 119.372C392.714 118.705 393.098 117.867 393.098 116.888H392.098ZM391.284 118.646C390.737 119.194 390.096 119.46 389.334 119.46V120.46C390.364 120.46 391.259 120.086 391.992 119.354L391.284 118.646ZM394.71 98.86H400.086V97.86H394.71V98.86ZM400.086 98.86C401.8 98.86 403.434 98.3094 404.98 97.2345L404.408 96.4135C403.01 97.3866 401.572 97.86 400.086 97.86V98.86ZM404.983 97.232C406.66 96.0444 407.498 94.3518 407.498 92.216H406.498C406.498 94.0482 405.8 95.4275 404.405 96.416L404.983 97.232ZM407.498 92.216C407.498 90.1551 406.731 88.549 405.168 87.4829L404.604 88.3091C405.857 89.163 406.498 90.4369 406.498 92.216H407.498ZM405.177 87.4891C403.751 86.4706 402.178 85.956 400.47 85.956V86.956C401.962 86.956 403.333 87.4013 404.595 88.3029L405.177 87.4891ZM400.47 85.956H394.998V86.956H400.47V85.956ZM394.998 85.956C394.121 85.956 393.371 86.1756 392.844 86.7024C392.318 87.2293 392.098 87.9789 392.098 88.856H393.098C393.098 88.1331 393.278 87.6827 393.552 87.4096C393.825 87.1364 394.275 86.956 394.998 86.956V85.956ZM392.098 88.856V96.152H393.098V88.856H392.098ZM392.098 96.152C392.098 96.9597 392.291 97.6582 392.765 98.1536C393.243 98.6532 393.923 98.86 394.71 98.86V97.86C394.089 97.86 393.713 97.6988 393.487 97.4624C393.257 97.2218 393.098 96.8163 393.098 96.152H392.098Z" fill="#AB0000" mask="url(#path-7-outside-4_1_15)"/>
</g>
<defs>
<filter id="filter0_d_1_15" x="15" y="10" width="84" height="99" filterUnits="userSpaceOnUse" color-interpolation-filters="sRGB">
<feFlood flood-opacity="0" result="BackgroundImageFix"/>
<feColorMatrix in="SourceAlpha" type="matrix" values="0 0 0 0 0 0 0 0 0 0 0 0 0 0 0 0 0 0 127 0" result="hardAlpha"/>
<feOffset dx="2" dy="2"/>
<feGaussianBlur stdDeviation="1"/>
<feComposite in2="hardAlpha" operator="out"/>
<feColorMatrix type="matrix" values="0 0 0 0 0.960784 0 0 0 0 0.278431 0 0 0 0 0.286275 0 0 0 0.25 0"/>
<feBlend mode="normal" in2="BackgroundImageFix" result="effect1_dropShadow_1_15"/>
<feBlend mode="normal" in="SourceGraphic" in2="effect1_dropShadow_1_15" result="shape"/>
</filter>
<filter id="filter1_d_1_15" x="64.92" y="64.64" width="134.076" height="44.32" filterUnits="userSpaceOnUse" color-interpolation-filters="sRGB">
<feFlood flood-opacity="0" result="BackgroundImageFix"/>
<feColorMatrix in="SourceAlpha" type="matrix" values="0 0 0 0 0 0 0 0 0 0 0 0 0 0 0 0 0 0 127 0" result="hardAlpha"/>
<feOffset dx="2" dy="2"/>
<feGaussianBlur stdDeviation="1"/>
<feComposite in2="hardAlpha" operator="out"/>
<feColorMatrix type="matrix" values="0 0 0 0 0.960784 0 0 0 0 0.278431 0 0 0 0 0.286275 0 0 0 0.25 0"/>
<feBlend mode="normal" in2="BackgroundImageFix" result="effect1_dropShadow_1_15"/>
<feBlend mode="normal" in="SourceGraphic" in2="effect1_dropShadow_1_15" result="shape"/>
</filter>
<filter id="filter2_d_1_15" x="170" y="25" width="84" height="99" filterUnits="userSpaceOnUse" color-interpolation-filters="sRGB">
<feFlood flood-opacity="0" result="BackgroundImageFix"/>
<feColorMatrix in="SourceAlpha" type="matrix" values="0 0 0 0 0 0 0 0 0 0 0 0 0 0 0 0 0 0 127 0" result="hardAlpha"/>
<feOffset dx="2" dy="2"/>
<feGaussianBlur stdDeviation="1"/>
<feComposite in2="hardAlpha" operator="out"/>
<feColorMatrix type="matrix" values="0 0 0 0 0.960784 0 0 0 0 0.278431 0 0 0 0 0.286275 0 0 0 0.25 0"/>
<feBlend mode="normal" in2="BackgroundImageFix" result="effect1_dropShadow_1_15"/>
<feBlend mode="normal" in="SourceGraphic" in2="effect1_dropShadow_1_15" result="shape"/>
</filter>
<filter id="filter3_d_1_15" x="220.32" y="80.12" width="198.55" height="43.936" filterUnits="userSpaceOnUse" color-interpolation-filters="sRGB">
<feFlood flood-opacity="0" result="BackgroundImageFix"/>
<feColorMatrix in="SourceAlpha" type="matrix" values="0 0 0 0 0 0 0 0 0 0 0 0 0 0 0 0 0 0 127 0" result="hardAlpha"/>
<feOffset dx="2" dy="2"/>
<feGaussianBlur stdDeviation="1"/>
<feComposite in2="hardAlpha" operator="out"/>
<feColorMatrix type="matrix" values="0 0 0 0 0.960784 0 0 0 0 0.278431 0 0 0 0 0.286275 0 0 0 0.25 0"/>
<feBlend mode="normal" in2="BackgroundImageFix" result="effect1_dropShadow_1_15"/>
<feBlend mode="normal" in="SourceGraphic" in2="effect1_dropShadow_1_15" result="shape"/>
</filter>
</defs>
</svg>
