<svg width="130" height="130" viewBox="0 0 130 130" fill="none" xmlns="http://www.w3.org/2000/svg">
<g filter="url(#filter0_d_1_2)">
<mask id="path-1-inside-1_1_2" fill="white">
<path fill-rule="evenodd" clip-rule="evenodd" d="M20 10C17.2386 10 15 12.2386 15 15C15 17.7614 17.2386 20 20 20H50V25H35C32.2386 25 30 27.2386 30 30C30 32.7614 32.2386 35 35 35H50V100C50 102.761 52.2386 105 55 105C57.7614 105 60 102.761 60 100V35H65V115C65 117.761 67.2386 120 70 120C72.7614 120 75 117.761 75 115V35H105C107.761 35 110 32.7614 110 30C110 27.2386 107.761 25 105 25H60V20H90C92.7614 20 95 17.7614 95 15C95 12.2386 92.7614 10 90 10H20Z"/>
</mask>
<path fill-rule="evenodd" clip-rule="evenodd" d="M20 10C17.2386 10 15 12.2386 15 15C15 17.7614 17.2386 20 20 20H50V25H35C32.2386 25 30 27.2386 30 30C30 32.7614 32.2386 35 35 35H50V100C50 102.761 52.2386 105 55 105C57.7614 105 60 102.761 60 100V35H65V115C65 117.761 67.2386 120 70 120C72.7614 120 75 117.761 75 115V35H105C107.761 35 110 32.7614 110 30C110 27.2386 107.761 25 105 25H60V20H90C92.7614 20 95 17.7614 95 15C95 12.2386 92.7614 10 90 10H20Z" fill="#F54749"/>
<path d="M50 20H50.5V19.5H50V20ZM50 25V25.5H50.5V25H50ZM50 35H50.5V34.5H50V35ZM60 35V34.5H59.5V35H60ZM65 35H65.5V34.5H65V35ZM75 35V34.5H74.5V35H75ZM60 25H59.5V25.5H60V25ZM60 20V19.5H59.5V20H60ZM15.5 15C15.5 12.5147 17.5147 10.5 20 10.5V9.5C16.9624 9.5 14.5 11.9624 14.5 15H15.5ZM20 19.5C17.5147 19.5 15.5 17.4853 15.5 15H14.5C14.5 18.0376 16.9624 20.5 20 20.5V19.5ZM50 19.5H20V20.5H50V19.5ZM50.5 25V20H49.5V25H50.5ZM35 25.5H50V24.5H35V25.5ZM30.5 30C30.5 27.5147 32.5147 25.5 35 25.5V24.5C31.9624 24.5 29.5 26.9624 29.5 30H30.5ZM35 34.5C32.5147 34.5 30.5 32.4853 30.5 30H29.5C29.5 33.0376 31.9624 35.5 35 35.5V34.5ZM50 34.5H35V35.5H50V34.5ZM50.5 100V35H49.5V100H50.5ZM55 104.5C52.5147 104.5 50.5 102.485 50.5 100H49.5C49.5 103.038 51.9624 105.5 55 105.5V104.5ZM59.5 100C59.5 102.485 57.4853 104.5 55 104.5V105.5C58.0376 105.5 60.5 103.038 60.5 100H59.5ZM59.5 35V100H60.5V35H59.5ZM65 34.5H60V35.5H65V34.5ZM65.5 115V35H64.5V115H65.5ZM70 119.5C67.5147 119.5 65.5 117.485 65.5 115H64.5C64.5 118.038 66.9624 120.5 70 120.5V119.5ZM74.5 115C74.5 117.485 72.4853 119.5 70 119.5V120.5C73.0376 120.5 75.5 118.038 75.5 115H74.5ZM74.5 35V115H75.5V35H74.5ZM105 34.5H75V35.5H105V34.5ZM109.5 30C109.5 32.4853 107.485 34.5 105 34.5V35.5C108.038 35.5 110.5 33.0376 110.5 30H109.5ZM105 25.5C107.485 25.5 109.5 27.5147 109.5 30H110.5C110.5 26.9624 108.038 24.5 105 24.5V25.5ZM60 25.5H105V24.5H60V25.5ZM59.5 20V25H60.5V20H59.5ZM90 19.5H60V20.5H90V19.5ZM94.5 15C94.5 17.4853 92.4853 19.5 90 19.5V20.5C93.0376 20.5 95.5 18.0376 95.5 15H94.5ZM90 10.5C92.4853 10.5 94.5 12.5147 94.5 15H95.5C95.5 11.9624 93.0376 9.5 90 9.5V10.5ZM20 10.5H90V9.5H20V10.5Z" fill="#AB0000" mask="url(#path-1-inside-1_1_2)"/>
</g>
<defs>
<filter id="filter0_d_1_2" x="15" y="10" width="99" height="114" filterUnits="userSpaceOnUse" color-interpolation-filters="sRGB">
<feFlood flood-opacity="0" result="BackgroundImageFix"/>
<feColorMatrix in="SourceAlpha" type="matrix" values="0 0 0 0 0 0 0 0 0 0 0 0 0 0 0 0 0 0 127 0" result="hardAlpha"/>
<feOffset dx="2" dy="2"/>
<feGaussianBlur stdDeviation="1"/>
<feComposite in2="hardAlpha" operator="out"/>
<feColorMatrix type="matrix" values="0 0 0 0 0.960784 0 0 0 0 0.278431 0 0 0 0 0.286275 0 0 0 0.25 0"/>
<feBlend mode="normal" in2="BackgroundImageFix" result="effect1_dropShadow_1_2"/>
<feBlend mode="normal" in="SourceGraphic" in2="effect1_dropShadow_1_2" result="shape"/>
</filter>
</defs>
</svg>
